<svg width="280" height="212" viewBox="0 0 280 212" fill="none" xmlns="http://www.w3.org/2000/svg">
<rect width="117" height="24" rx="12" fill="#D1D2E3"/>
<path d="M15 8.608H12.228V7.432H19.104V8.608H16.332V16H15V8.608ZM19.153 12.904C19.153 12.224 19.277 11.636 19.525 11.14C19.773 10.644 20.129 10.26 20.593 9.988C21.057 9.716 21.601 9.58 22.225 9.58C22.857 9.58 23.397 9.712 23.845 9.976C24.301 10.24 24.649 10.616 24.889 11.104C25.137 11.592 25.261 12.176 25.261 12.856C25.261 13.544 25.137 14.136 24.889 14.632C24.641 15.128 24.285 15.512 23.821 15.784C23.365 16.056 22.821 16.192 22.189 16.192C21.229 16.192 20.481 15.9 19.945 15.316C19.417 14.732 19.153 13.928 19.153 12.904ZM20.461 12.88C20.461 13.56 20.597 14.112 20.869 14.536C21.141 14.952 21.585 15.16 22.201 15.16C22.609 15.16 22.941 15.064 23.197 14.872C23.453 14.68 23.641 14.412 23.761 14.068C23.889 13.716 23.953 13.316 23.953 12.868C23.953 12.196 23.813 11.652 23.533 11.236C23.261 10.82 22.817 10.612 22.201 10.612C21.593 10.612 21.149 10.824 20.869 11.248C20.597 11.664 20.461 12.208 20.461 12.88ZM26.7427 9.772H27.9667V11.476L27.7507 10.948C28.0067 10.516 28.3187 10.18 28.6867 9.94C29.0627 9.7 29.5027 9.58 30.0067 9.58C30.5907 9.58 31.0747 9.72 31.4587 10C31.8507 10.272 32.1427 10.652 32.3347 11.14C32.5267 11.62 32.6227 12.184 32.6227 12.832C32.6227 13.52 32.5107 14.116 32.2867 14.62C32.0707 15.124 31.7587 15.512 31.3507 15.784C30.9427 16.056 30.4547 16.192 29.8867 16.192C29.4867 16.192 29.0987 16.1 28.7227 15.916C28.3467 15.724 28.0267 15.384 27.7627 14.896L27.9907 14.2V18.328H26.7427V9.772ZM31.3147 12.868C31.3147 12.3 31.2387 11.852 31.0867 11.524C30.9347 11.196 30.7387 10.964 30.4987 10.828C30.2587 10.684 30.0027 10.612 29.7307 10.612C29.1627 10.612 28.7307 10.804 28.4347 11.188C28.1387 11.572 27.9907 12.064 27.9907 12.664V13.048C27.9907 13.704 28.1267 14.22 28.3987 14.596C28.6787 14.972 29.0987 15.16 29.6587 15.16C29.9787 15.16 30.2627 15.088 30.5107 14.944C30.7587 14.792 30.9547 14.548 31.0987 14.212C31.2427 13.868 31.3147 13.42 31.3147 12.868ZM36.9936 7.432H38.6136L41.4696 15.136H40.9416L43.8456 7.432H45.4176V16H44.1816V7.552L44.9256 7.588L41.6976 16H40.6536L37.4616 7.576L38.2056 7.552V16H36.9936V7.432ZM46.8397 14.284C46.8397 13.86 46.9277 13.516 47.1037 13.252C47.2797 12.988 47.5157 12.78 47.8117 12.628C48.1157 12.468 48.4557 12.356 48.8317 12.292C49.2157 12.228 49.6037 12.188 49.9957 12.172L51.6517 12.112V12.94L50.0677 13C49.5637 13.016 49.1637 13.076 48.8677 13.18C48.5797 13.276 48.3757 13.412 48.2557 13.588C48.1437 13.756 48.0877 13.972 48.0877 14.236C48.0877 14.524 48.1717 14.756 48.3397 14.932C48.5157 15.1 48.8037 15.184 49.2037 15.184C49.5717 15.184 49.8917 15.124 50.1637 15.004C50.4357 14.884 50.6477 14.704 50.7997 14.464C50.9517 14.224 51.0277 13.932 51.0277 13.588V11.896C51.0277 11.408 50.9237 11.06 50.7157 10.852C50.5077 10.636 50.1717 10.528 49.7077 10.528C49.2597 10.528 48.9277 10.604 48.7117 10.756C48.4957 10.908 48.3557 11.12 48.2917 11.392L47.1517 11.272C47.2637 10.696 47.5357 10.272 47.9677 10C48.4077 9.72 49.0037 9.58 49.7557 9.58C50.6677 9.58 51.3117 9.792 51.6877 10.216C52.0637 10.632 52.2517 11.224 52.2517 11.992V16H51.0517V14.68L51.2557 14.932C51.0237 15.26 50.7237 15.544 50.3557 15.784C49.9957 16.024 49.5317 16.144 48.9637 16.144C48.3317 16.144 47.8197 15.988 47.4277 15.676C47.0357 15.364 46.8397 14.9 46.8397 14.284ZM54.2905 13.924V8.092H55.5385V14.14C55.5385 14.428 55.6025 14.66 55.7305 14.836C55.8665 15.012 56.0705 15.1 56.3425 15.1C56.5105 15.1 56.6585 15.088 56.7865 15.064C56.9145 15.032 57.0305 15.004 57.1345 14.98L57.3385 15.928C57.1625 15.984 56.9745 16.032 56.7745 16.072C56.5745 16.112 56.3425 16.132 56.0785 16.132C55.5985 16.132 55.2265 16.04 54.9625 15.856C54.7065 15.672 54.5305 15.416 54.4345 15.088C54.3385 14.752 54.2905 14.364 54.2905 13.924ZM53.3185 9.772H57.1345V10.768H53.3185V9.772ZM58.1699 12.916C58.1699 12.244 58.2899 11.66 58.5299 11.164C58.7779 10.66 59.1259 10.272 59.5739 10C60.0219 9.72 60.5579 9.58 61.1819 9.58C61.9419 9.58 62.5339 9.768 62.9579 10.144C63.3899 10.52 63.6579 11.036 63.7619 11.692L62.5259 11.896C62.4539 11.52 62.3179 11.212 62.1179 10.972C61.9179 10.732 61.5979 10.612 61.1579 10.612C60.7579 10.612 60.4339 10.712 60.1859 10.912C59.9379 11.112 59.7579 11.384 59.6459 11.728C59.5339 12.064 59.4779 12.448 59.4779 12.88C59.4779 13.312 59.5299 13.704 59.6339 14.056C59.7459 14.4 59.9219 14.672 60.1619 14.872C60.4099 15.064 60.7379 15.16 61.1459 15.16C61.6099 15.16 61.9539 15.044 62.1779 14.812C62.4019 14.572 62.5459 14.248 62.6099 13.84H63.8459C63.7499 14.568 63.4739 15.144 63.0179 15.568C62.5699 15.984 61.9379 16.192 61.1219 16.192C60.1619 16.192 59.4299 15.896 58.9259 15.304C58.4219 14.712 58.1699 13.916 58.1699 12.916ZM65.2322 7.432H66.4802V11.536L66.1322 11.14C66.3722 10.756 66.6242 10.452 66.8882 10.228C67.1522 10.004 67.4242 9.84 67.7042 9.736C67.9922 9.632 68.2842 9.58 68.5802 9.58C69.2762 9.58 69.7962 9.776 70.1402 10.168C70.4842 10.56 70.6562 11.12 70.6562 11.848V16H69.4082V12.088C69.4082 11.568 69.3082 11.2 69.1082 10.984C68.9162 10.76 68.6282 10.648 68.2442 10.648C68.0282 10.648 67.8122 10.688 67.5962 10.768C67.3802 10.84 67.1882 10.96 67.0202 11.128C66.9082 11.232 66.8122 11.34 66.7322 11.452C66.6522 11.564 66.5882 11.692 66.5402 11.836C66.5002 11.972 66.4802 12.136 66.4802 12.328V16H65.2322V7.432ZM72.0857 12.94C72.0857 12.22 72.2097 11.612 72.4577 11.116C72.7137 10.612 73.0657 10.232 73.5137 9.976C73.9617 9.712 74.4777 9.58 75.0617 9.58C75.7017 9.58 76.2257 9.712 76.6337 9.976C77.0497 10.232 77.3577 10.592 77.5577 11.056C77.7577 11.512 77.8577 12.04 77.8577 12.64V13.192H72.6977V12.34H77.2337L76.6337 12.748C76.6337 12.268 76.5897 11.864 76.5017 11.536C76.4137 11.2 76.2577 10.948 76.0337 10.78C75.8097 10.604 75.4817 10.516 75.0497 10.516C74.5937 10.516 74.2417 10.624 73.9937 10.84C73.7457 11.056 73.5737 11.348 73.4777 11.716C73.3817 12.076 73.3337 12.476 73.3337 12.916C73.3337 13.644 73.4777 14.212 73.7657 14.62C74.0537 15.02 74.4857 15.22 75.0617 15.22C75.5417 15.22 75.8937 15.132 76.1177 14.956C76.3417 14.772 76.4937 14.524 76.5737 14.212H77.7617C77.6577 14.828 77.3857 15.312 76.9457 15.664C76.5057 16.016 75.8777 16.192 75.0617 16.192C74.1097 16.192 73.3737 15.908 72.8537 15.34C72.3417 14.764 72.0857 13.964 72.0857 12.94ZM83.092 14.332C83.092 14.172 83.064 14.032 83.008 13.912C82.96 13.792 82.864 13.688 82.72 13.6C82.576 13.512 82.36 13.448 82.072 13.408L81.304 13.288C80.584 13.168 80.036 12.976 79.66 12.712C79.292 12.44 79.108 12.016 79.108 11.44C79.108 11.048 79.216 10.716 79.432 10.444C79.656 10.164 79.956 9.952 80.332 9.808C80.716 9.656 81.152 9.58 81.64 9.58C82.24 9.58 82.716 9.656 83.068 9.808C83.42 9.96 83.684 10.168 83.86 10.432C84.044 10.688 84.172 10.984 84.244 11.32L83.104 11.476C83 11.164 82.852 10.928 82.66 10.768C82.468 10.608 82.136 10.528 81.664 10.528C81.144 10.528 80.788 10.616 80.596 10.792C80.404 10.96 80.308 11.152 80.308 11.368C80.308 11.608 80.376 11.796 80.512 11.932C80.656 12.068 80.952 12.172 81.4 12.244L82.264 12.388C82.768 12.476 83.172 12.6 83.476 12.76C83.78 12.912 84 13.116 84.136 13.372C84.28 13.62 84.352 13.94 84.352 14.332C84.352 14.876 84.136 15.324 83.704 15.676C83.28 16.02 82.644 16.192 81.796 16.192C81.268 16.192 80.796 16.128 80.38 16C79.972 15.864 79.64 15.648 79.384 15.352C79.136 15.048 78.996 14.648 78.964 14.152H80.164C80.228 14.552 80.392 14.832 80.656 14.992C80.928 15.152 81.296 15.232 81.76 15.232C82.248 15.232 82.592 15.152 82.792 14.992C82.992 14.824 83.092 14.604 83.092 14.332Z" fill="black"/>
<path d="M92.0883 11.4114L96.4118 7.08789M96.4118 7.08789L100.735 11.4114M96.4118 7.08789V15.7349" stroke="#333333" stroke-width="1.23529" stroke-linecap="round" stroke-linejoin="round"/>
<path d="M0 47.7778C0 43.4822 3.48223 40 7.77778 40H272.222C276.518 40 280 43.4822 280 47.7778V110C280 114.296 276.518 117.778 272.222 117.778H7.77776C3.48222 117.778 0 114.296 0 110V47.7778Z" fill="white"/>
<path fill-rule="evenodd" clip-rule="evenodd" d="M19.3765 58.7841C22.4919 56.6006 26.6724 56.6006 29.7612 58.7841L27.2848 61.2604C25.5807 60.3284 23.5038 60.3284 21.8263 61.2604L19.3499 58.7841H19.3765ZM22.4387 64.003C23.6103 62.8314 25.5541 62.8314 26.7257 64.003C27.8973 65.1746 27.8973 67.1184 26.7257 68.29C25.5541 69.4616 23.6103 69.4616 22.4387 68.29C21.2671 67.1184 21.2671 65.1746 22.4387 64.003ZM31.9446 60.9409C34.128 64.0562 34.128 68.2367 31.9446 71.3255L29.4683 68.8491C30.4002 67.145 30.4002 65.0681 29.4683 63.3906L31.9446 60.9142V60.9409ZM29.7612 73.5089C26.6458 75.6923 22.4653 75.6923 19.3765 73.5089L21.8529 71.0326C23.557 71.9645 25.6339 71.9645 27.3115 71.0326L29.7878 73.5089H29.7612ZM17.1931 71.3255C15.0097 68.2101 15.0097 64.0296 17.1931 60.9409L19.6694 63.4172C18.7375 65.1213 18.7375 67.1983 19.6694 68.8758L17.1931 71.3521V71.3255Z" fill="black"/>
<path d="M43.6829 71.0243V71.6465H39.0784V71.0243C39.5866 71.0035 39.9755 70.9102 40.2451 70.7443C40.5251 70.5783 40.6651 70.2932 40.6651 69.8887V62.5154C40.6651 62.1109 40.5251 61.8257 40.2451 61.6598C39.9755 61.4939 39.5866 61.4006 39.0784 61.3798V60.7576H43.6829V61.3798C43.1747 61.4006 42.7807 61.4939 42.5007 61.6598C42.231 61.8257 42.0962 62.1109 42.0962 62.5154V65.642H47.5096V62.5154C47.5096 62.1109 47.3696 61.8257 47.0896 61.6598C46.8199 61.4939 46.431 61.4006 45.9229 61.3798V60.7576H50.5273V61.3798C50.0192 61.4006 49.6251 61.4939 49.3451 61.6598C49.0755 61.8257 48.9407 62.1109 48.9407 62.5154V69.8887C48.9407 70.2932 49.0755 70.5783 49.3451 70.7443C49.6251 70.9102 50.0192 71.0035 50.5273 71.0243V71.6465H45.9229V71.0243C46.431 71.0035 46.8199 70.9102 47.0896 70.7443C47.3696 70.5783 47.5096 70.2932 47.5096 69.8887V66.4198H42.0962V69.8887C42.0962 70.2932 42.231 70.5783 42.5007 70.7443C42.7807 70.9102 43.1747 71.0035 43.6829 71.0243ZM53.1464 62.422C52.8664 62.422 52.6279 62.3235 52.4308 62.1265C52.2338 61.9191 52.1353 61.6754 52.1353 61.3954C52.1353 61.1154 52.2338 60.8769 52.4308 60.6798C52.6279 60.4828 52.8664 60.3843 53.1464 60.3843C53.4367 60.3843 53.6805 60.4828 53.8775 60.6798C54.0745 60.8769 54.173 61.1154 54.173 61.3954C54.173 61.6754 54.0745 61.9191 53.8775 62.1265C53.6805 62.3235 53.4367 62.422 53.1464 62.422ZM53.8775 70.262C53.8775 70.5213 53.9864 70.7132 54.2042 70.8376C54.4323 70.962 54.7227 71.0346 55.0753 71.0554V71.6465H51.3108V71.0554C51.6634 71.0346 51.9486 70.962 52.1664 70.8376C52.3945 70.7132 52.5086 70.5213 52.5086 70.262V65.6887L51.3264 65.0043V64.7398L53.5975 63.9309H53.8775V70.262ZM58.9329 69.1732C58.6114 69.1732 58.3003 69.1317 57.9996 69.0487C57.7922 69.1835 57.6263 69.3391 57.5018 69.5154C57.3877 69.6917 57.3307 69.8524 57.3307 69.9976C57.3307 70.2672 57.5018 70.402 57.844 70.402H60.6907C61.5826 70.402 62.1944 70.5628 62.5263 70.8843C62.8581 71.2057 63.024 71.6257 63.024 72.1443C63.024 72.5902 62.9048 73.005 62.6663 73.3887C62.4277 73.7828 62.1011 74.125 61.6863 74.4154C61.2714 74.7161 60.7944 74.9494 60.2551 75.1154C59.7159 75.2917 59.1455 75.3798 58.544 75.3798C57.9529 75.3798 57.4188 75.3072 56.9418 75.162C56.4648 75.0272 56.0863 74.8198 55.8063 74.5398C55.5263 74.2598 55.3863 73.9228 55.3863 73.5287C55.3863 73.1035 55.5677 72.7406 55.9307 72.4398C56.2937 72.1391 56.7655 71.8746 57.3463 71.6465C56.9418 71.5946 56.6463 71.4806 56.4596 71.3043C56.2729 71.1176 56.1796 70.8946 56.1796 70.6354C56.1796 70.4072 56.2729 70.1583 56.4596 69.8887C56.6463 69.6191 57.0351 69.2976 57.6263 68.9243C57.1596 68.7272 56.7863 68.4369 56.5063 68.0532C56.2366 67.6694 56.1018 67.2287 56.1018 66.7309C56.1018 66.1813 56.2366 65.6991 56.5063 65.2843C56.7863 64.8591 57.144 64.5272 57.5796 64.2887C58.0255 64.0502 58.4922 63.9309 58.9796 63.9309C59.5914 63.9309 60.1255 64.0709 60.5818 64.3509H63.0396V65.2843H61.484C61.6603 65.6161 61.7485 65.9739 61.7485 66.3576C61.7485 66.9176 61.6188 67.4102 61.3596 67.8354C61.1003 68.2502 60.7581 68.5769 60.3329 68.8154C59.9077 69.0539 59.4411 69.1732 58.9329 69.1732ZM59.104 68.5509C59.55 68.5509 59.887 68.3798 60.1151 68.0376C60.3537 67.685 60.4729 67.2443 60.4729 66.7154C60.4729 66.3524 60.4055 66.005 60.2707 65.6732C60.1359 65.3309 59.9389 65.0561 59.6796 64.8487C59.4307 64.6309 59.13 64.522 58.7774 64.522C58.3729 64.522 58.0566 64.6983 57.8285 65.0509C57.6003 65.3932 57.4863 65.8391 57.4863 66.3887C57.4863 66.7413 57.5537 67.0835 57.6885 67.4154C57.8233 67.7472 58.01 68.022 58.2485 68.2398C58.4974 68.4472 58.7826 68.5509 59.104 68.5509ZM56.8018 73.1709C56.8018 73.6791 57.0248 74.0317 57.4707 74.2287C57.927 74.4257 58.487 74.5243 59.1507 74.5243C59.6796 74.5243 60.1463 74.4465 60.5507 74.2909C60.9655 74.1354 61.2922 73.9228 61.5307 73.6532C61.7692 73.3939 61.8885 73.0983 61.8885 72.7665C61.8885 72.4243 61.7744 72.1546 61.5463 71.9576C61.3181 71.7606 60.9292 71.662 60.3796 71.662H57.9529C57.6418 71.8072 57.3722 72.0094 57.144 72.2687C56.9159 72.5383 56.8018 72.8391 56.8018 73.1709ZM67.3166 71.0554V71.6465H63.5522V71.0554C63.9048 71.0346 64.19 70.962 64.4077 70.8376C64.6359 70.7132 64.75 70.5213 64.75 70.262V61.4887L63.5677 60.8043V60.5398L65.8389 59.7309H66.1189V65.2065C66.4403 64.8954 66.8033 64.605 67.2077 64.3354C67.6226 64.0657 68.084 63.9309 68.5922 63.9309C69.0381 63.9309 69.4115 64.0346 69.7122 64.242C70.0129 64.4494 70.2359 64.7243 70.3811 65.0665C70.5366 65.3983 70.6144 65.7509 70.6144 66.1243V70.262C70.6144 70.5213 70.7233 70.7132 70.9411 70.8376C71.1692 70.962 71.4596 71.0346 71.8122 71.0554V71.6465H68.0477V71.0554C68.4003 71.0346 68.6855 70.962 68.9033 70.8376C69.1315 70.7132 69.2455 70.5213 69.2455 70.262V66.7776C69.2455 66.1657 69.1107 65.7198 68.8411 65.4398C68.5818 65.1494 68.2189 65.0043 67.7522 65.0043C67.4515 65.0043 67.1507 65.082 66.85 65.2376C66.5596 65.3828 66.3159 65.5591 66.1189 65.7665V70.262C66.1189 70.5213 66.2277 70.7132 66.4455 70.8376C66.6737 70.962 66.964 71.0346 67.3166 71.0554ZM80.5748 68.1465C80.5748 67.742 80.4348 67.4569 80.1548 67.2909C79.8852 67.125 79.4963 67.0317 78.9882 67.0109V66.3887H83.2504V67.0109C82.8459 67.0317 82.5296 67.125 82.3015 67.2909C82.0837 67.4569 81.9748 67.742 81.9748 68.1465V70.682C81.4771 71.0346 80.8963 71.3094 80.2326 71.5065C79.5793 71.7035 78.8845 71.802 78.1482 71.802C77.08 71.802 76.1311 71.5739 75.3015 71.1176C74.4719 70.6509 73.8237 70.0183 73.3571 69.2198C72.8904 68.4213 72.6571 67.5087 72.6571 66.482C72.6571 65.5902 72.8074 64.7813 73.1082 64.0554C73.4089 63.3294 73.8185 62.7124 74.3371 62.2043C74.8659 61.6857 75.4622 61.2917 76.1259 61.022C76.8 60.742 77.5104 60.602 78.2571 60.602C79.0141 60.602 79.6882 60.7006 80.2793 60.8976C80.8808 61.0946 81.363 61.3228 81.7259 61.582V64.0243H81.1037C80.9067 63.122 80.5489 62.4583 80.0304 62.0332C79.5119 61.608 78.8741 61.3954 78.1171 61.3954C77.3496 61.3954 76.6808 61.6028 76.1104 62.0176C75.5504 62.4324 75.1148 62.9924 74.8037 63.6976C74.503 64.3924 74.3526 65.1754 74.3526 66.0465C74.3526 66.9487 74.5134 67.7732 74.8348 68.5198C75.1667 69.2665 75.6334 69.8628 76.2348 70.3087C76.8467 70.7546 77.5726 70.9776 78.4126 70.9776C78.8067 70.9776 79.1956 70.9257 79.5793 70.822C79.963 70.7183 80.2948 70.5472 80.5748 70.3087V68.1465ZM87.9406 71.0554V71.6465H83.8651V71.0554C84.2177 71.0346 84.5029 70.962 84.7206 70.8376C84.9488 70.7132 85.0629 70.5213 85.0629 70.262V65.6887L83.8806 65.0043V64.7398L86.1517 63.9309H86.4317V65.3776C86.8051 65.0146 87.168 64.6828 87.5206 64.382C87.8836 64.0813 88.2569 63.9309 88.6406 63.9309C88.9932 63.9309 89.2525 64.0657 89.4184 64.3354C89.5947 64.5946 89.688 64.8643 89.6984 65.1443L88.6251 65.8909H88.3917C88.2673 65.6732 88.148 65.5072 88.034 65.3932C87.9199 65.2687 87.7747 65.2065 87.5984 65.2065C87.4325 65.2065 87.2406 65.2791 87.0229 65.4243C86.8154 65.5591 86.6184 65.725 86.4317 65.922V70.262C86.4317 70.5213 86.5458 70.708 86.774 70.822C87.0125 70.9361 87.4014 71.0139 87.9406 71.0554ZM90.1245 68.0065C90.1245 67.2598 90.2697 66.5806 90.56 65.9687C90.8504 65.3465 91.26 64.8539 91.7889 64.4909C92.3178 64.1176 92.9349 63.9309 93.64 63.9309C94.3245 63.9309 94.9312 64.0917 95.46 64.4132C95.9889 64.7243 96.4037 65.165 96.7045 65.7354C97.0052 66.3057 97.1556 66.9643 97.1556 67.7109C97.1556 68.4472 97.0104 69.1265 96.72 69.7487C96.4297 70.3709 96.02 70.8687 95.4912 71.242C94.9623 71.6154 94.3452 71.802 93.64 71.802C92.966 71.802 92.3593 71.6413 91.82 71.3198C91.2912 70.9983 90.8763 70.5524 90.5756 69.982C90.2749 69.4117 90.1245 68.7532 90.1245 68.0065ZM91.5867 67.4309C91.5867 68.0324 91.68 68.6183 91.8667 69.1887C92.0534 69.7487 92.3126 70.2102 92.6445 70.5732C92.9763 70.9257 93.36 71.102 93.7956 71.102C94.4697 71.102 94.9519 70.848 95.2423 70.3398C95.543 69.8317 95.6934 69.1524 95.6934 68.302C95.6934 67.6902 95.6 67.1043 95.4134 66.5443C95.2267 65.9843 94.9623 65.528 94.62 65.1754C94.2778 64.8124 93.8786 64.6309 93.4223 64.6309C92.7897 64.6309 92.323 64.885 92.0223 65.3932C91.7319 65.9013 91.5867 66.5806 91.5867 67.4309ZM104.741 64.0865V70.0132C104.741 70.262 104.788 70.4487 104.881 70.5732C104.974 70.6976 105.151 70.7754 105.41 70.8065L105.985 70.8843V71.4598L103.714 71.802H103.388V70.5265C103.076 70.8272 102.719 71.1176 102.314 71.3976C101.92 71.6672 101.479 71.802 100.992 71.802C100.556 71.802 100.183 71.7035 99.872 71.5065C99.5712 71.2991 99.3379 71.0294 99.172 70.6976C99.0164 70.3554 98.9387 69.9872 98.9387 69.5932V65.7043C98.9387 65.4035 98.8401 65.2117 98.6431 65.1287C98.4564 65.0457 98.1712 64.9835 97.7875 64.942V64.3198L100.308 64.0865V68.9865C100.308 69.5983 100.437 70.0443 100.696 70.3243C100.956 70.6043 101.324 70.7443 101.801 70.7443C102.102 70.7443 102.392 70.6717 102.672 70.5265C102.952 70.3709 103.185 70.1946 103.372 69.9976V65.7043C103.372 65.4035 103.273 65.2117 103.076 65.1287C102.89 65.0457 102.605 64.9835 102.221 64.942V64.3198L104.741 64.0865ZM107.91 65.6887L106.728 65.0043V64.7398L108.999 63.9309H109.279V65.2065C109.6 64.8954 109.963 64.605 110.368 64.3354C110.783 64.0657 111.244 63.9309 111.752 63.9309C112.198 63.9309 112.572 64.0346 112.872 64.242C113.173 64.4494 113.396 64.7243 113.541 65.0665C113.697 65.3983 113.775 65.7509 113.775 66.1243V70.262C113.775 70.5213 113.883 70.7132 114.101 70.8376C114.329 70.962 114.62 71.0346 114.972 71.0554V71.6465H111.208V71.0554C111.56 71.0346 111.846 70.962 112.063 70.8376C112.292 70.7132 112.406 70.5213 112.406 70.262V66.7776C112.406 66.1657 112.271 65.7198 112.001 65.4398C111.742 65.1494 111.379 65.0043 110.912 65.0043C110.612 65.0043 110.311 65.082 110.01 65.2376C109.72 65.3828 109.476 65.5591 109.279 65.7665V70.262C109.279 70.5213 109.388 70.7132 109.606 70.8376C109.834 70.962 110.124 71.0346 110.477 71.0554V71.6465H106.712V71.0554C107.065 71.0346 107.35 70.962 107.568 70.8376C107.796 70.7132 107.91 70.5213 107.91 70.262V65.6887ZM123.779 71.4598L121.492 71.802H121.166V70.4643C120.865 70.848 120.507 71.1694 120.092 71.4287C119.688 71.6776 119.258 71.802 118.801 71.802C118.252 71.802 117.743 71.6517 117.277 71.3509C116.81 71.0502 116.432 70.6302 116.141 70.0909C115.861 69.5517 115.721 68.9294 115.721 68.2243C115.721 67.3532 115.892 66.5961 116.235 65.9532C116.577 65.3102 117.033 64.8124 117.603 64.4598C118.174 64.1072 118.801 63.9309 119.486 63.9309C119.849 63.9309 120.16 63.9776 120.419 64.0709C120.689 64.1643 120.938 64.2835 121.166 64.4287V61.4887L119.983 60.8043V60.5398L122.255 59.7309H122.535V70.0132C122.535 70.262 122.581 70.4487 122.675 70.5732C122.768 70.6976 122.944 70.7754 123.203 70.8065L123.779 70.8843V71.4598ZM121.166 69.982V66.6376C121.166 66.005 120.984 65.528 120.621 65.2065C120.258 64.885 119.823 64.7243 119.315 64.7243C118.661 64.7243 118.117 64.9835 117.681 65.502C117.256 66.0102 117.043 66.6946 117.043 67.5554C117.043 68.4991 117.277 69.2509 117.743 69.8109C118.221 70.3606 118.838 70.6354 119.595 70.6354C119.885 70.6354 120.17 70.5783 120.45 70.4643C120.73 70.3502 120.969 70.1894 121.166 69.982Z" fill="black"/>
<rect x="225.889" y="55.5547" width="38.5556" height="21.1852" rx="10.5926" fill="#1D9B2D" fill-opacity="0.08"/>
<path d="M237.95 65.7969C237.95 65.6378 237.95 65.4857 237.95 65.3406C237.95 65.1885 237.95 65.0398 237.95 64.8946L238.136 65.5583C237.998 65.7865 237.836 65.9766 237.649 66.1287C237.469 66.2808 237.265 66.3949 237.037 66.4709C236.809 66.547 236.553 66.585 236.27 66.585C235.779 66.585 235.371 66.4848 235.046 66.2843C234.728 66.0838 234.486 65.8072 234.32 65.4546C234.161 65.102 234.082 64.7011 234.082 64.2517C234.082 63.7539 234.185 63.3218 234.393 62.9554C234.607 62.582 234.904 62.2951 235.285 62.0946C235.665 61.8872 236.111 61.7835 236.622 61.7835C237.113 61.7835 237.525 61.8769 237.856 62.0635C238.188 62.2433 238.454 62.4956 238.655 62.8206C238.855 63.1455 238.997 63.5188 239.08 63.9406C239.17 64.3554 239.215 64.7978 239.215 65.268C239.215 65.8625 239.173 66.4087 239.09 66.9065C239.007 67.3973 238.862 67.826 238.655 68.1924C238.454 68.5588 238.185 68.8423 237.846 69.0428C237.507 69.2364 237.082 69.3332 236.57 69.3332C235.879 69.3332 235.329 69.1741 234.922 68.8561C234.521 68.5312 234.289 68.0507 234.227 67.4146H235.482C235.537 67.705 235.651 67.9193 235.824 68.0576C235.997 68.189 236.246 68.2546 236.57 68.2546C236.806 68.2546 237.006 68.2132 237.172 68.1302C237.345 68.0403 237.49 67.8986 237.607 67.705C237.725 67.5114 237.811 67.2591 237.867 66.948C237.922 66.6299 237.95 66.2462 237.95 65.7969ZM237.856 64.262C237.856 64.0132 237.811 63.7815 237.722 63.5672C237.639 63.346 237.507 63.1697 237.327 63.0383C237.148 62.907 236.92 62.8413 236.643 62.8413C236.249 62.8413 235.934 62.9657 235.699 63.2146C235.471 63.4566 235.357 63.7919 235.357 64.2206C235.357 64.4764 235.395 64.708 235.471 64.9154C235.554 65.1228 235.682 65.2852 235.855 65.4028C236.035 65.5203 236.27 65.5791 236.56 65.5791C236.802 65.5791 237.016 65.5341 237.203 65.4443C237.397 65.3475 237.552 65.2023 237.67 65.0087C237.794 64.8082 237.856 64.5593 237.856 64.262ZM244.191 67.062C244.191 66.6749 244.083 66.3983 243.869 66.2324C243.655 66.0596 243.357 65.9732 242.977 65.9732H242.262V64.905H243.008C243.333 64.905 243.589 64.8186 243.776 64.6457C243.962 64.466 244.056 64.2067 244.056 63.868C244.056 63.5638 243.959 63.3287 243.765 63.1628C243.579 62.9969 243.302 62.9139 242.936 62.9139C242.556 62.9139 242.269 63.0003 242.075 63.1732C241.888 63.3391 241.747 63.6018 241.65 63.9613L240.426 63.8161C240.488 63.4359 240.616 63.0936 240.81 62.7894C241.003 62.4852 241.28 62.2433 241.639 62.0635C241.999 61.8769 242.455 61.7835 243.008 61.7835C243.527 61.7835 243.959 61.8665 244.305 62.0324C244.65 62.1983 244.91 62.4265 245.082 62.7169C245.262 63.0003 245.352 63.3252 245.352 63.6917C245.352 64.1549 245.238 64.5317 245.01 64.822C244.782 65.1124 244.446 65.3267 244.004 65.465V65.2161C244.516 65.3475 244.896 65.5756 245.145 65.9006C245.4 66.2255 245.528 66.623 245.528 67.0932C245.528 67.5356 245.432 67.9262 245.238 68.265C245.051 68.5969 244.768 68.8596 244.388 69.0532C244.014 69.2398 243.551 69.3332 242.998 69.3332C242.514 69.3332 242.103 69.2709 241.764 69.1465C241.432 69.0151 241.162 68.8423 240.955 68.628C240.755 68.4067 240.606 68.1578 240.509 67.8813C240.419 67.5978 240.371 67.3006 240.364 66.9894H241.629C241.664 67.4043 241.781 67.7154 241.982 67.9228C242.189 68.1233 242.517 68.2235 242.967 68.2235C243.361 68.2235 243.662 68.1233 243.869 67.9228C244.083 67.7223 244.191 67.4354 244.191 67.062ZM252.205 61.9806H253.428L249.944 69.1465H248.71L252.205 61.9806ZM251.925 67.062C251.925 66.5643 252.004 66.1529 252.163 65.828C252.322 65.4961 252.54 65.2472 252.817 65.0813C253.1 64.9154 253.425 64.8324 253.791 64.8324C254.351 64.8324 254.801 65.0191 255.14 65.3924C255.485 65.7657 255.658 66.3223 255.658 67.062C255.658 67.8156 255.489 68.3756 255.15 68.742C254.811 69.1085 254.358 69.2917 253.791 69.2917C253.238 69.2917 252.789 69.1085 252.443 68.742C252.098 68.3756 251.925 67.8156 251.925 67.062ZM253.024 67.0724C253.024 67.5218 253.09 67.8467 253.221 68.0472C253.352 68.2477 253.543 68.348 253.791 68.348C254.04 68.348 254.23 68.2477 254.362 68.0472C254.493 67.8467 254.559 67.5218 254.559 67.0724C254.559 66.623 254.493 66.2981 254.362 66.0976C254.23 65.8902 254.04 65.7865 253.791 65.7865C253.543 65.7865 253.352 65.8902 253.221 66.0976C253.09 66.2981 253.024 66.623 253.024 67.0724ZM246.491 64.0546C246.491 63.5569 246.57 63.1455 246.729 62.8206C246.888 62.4887 247.106 62.2398 247.383 62.0739C247.666 61.908 247.991 61.825 248.357 61.825C248.917 61.825 249.367 62.0117 249.705 62.385C250.051 62.7583 250.224 63.3149 250.224 64.0546C250.224 64.8082 250.055 65.3682 249.716 65.7346C249.377 66.1011 248.924 66.2843 248.357 66.2843C247.804 66.2843 247.355 66.1011 247.009 65.7346C246.664 65.3682 246.491 64.8082 246.491 64.0546ZM247.59 64.065C247.59 64.5144 247.656 64.8393 247.787 65.0398C247.918 65.2403 248.108 65.3406 248.357 65.3406C248.606 65.3406 248.796 65.2403 248.928 65.0398C249.059 64.8393 249.125 64.5144 249.125 64.065C249.125 63.6156 249.059 63.2907 248.928 63.0902C248.796 62.8828 248.606 62.7791 248.357 62.7791C248.108 62.7791 247.918 62.8828 247.787 63.0902C247.656 63.2907 247.59 63.6156 247.59 64.065Z" fill="#1D9B2D"/>
<path d="M16.3437 90.7069H18.8741C19.4202 90.7069 19.8731 90.7656 20.2326 90.8832C20.5921 91.0007 20.8721 91.1632 21.0726 91.3706C21.28 91.5711 21.4252 91.7992 21.5081 92.055C21.598 92.3108 21.6429 92.5736 21.6429 92.8432C21.6429 93.3686 21.5185 93.8111 21.2696 94.1706C21.0207 94.5301 20.6267 94.7997 20.0874 94.9795L19.517 95.0936C19.4271 95.1074 19.3165 95.1177 19.1852 95.1247C19.0607 95.1316 18.9432 95.135 18.8326 95.135H16.8726V94.1913H18.9363C19.3442 94.1913 19.6622 94.1395 19.8904 94.0358C20.1185 93.9321 20.2775 93.78 20.3674 93.5795C20.4573 93.379 20.5022 93.1474 20.5022 92.8847C20.5022 92.615 20.4504 92.3903 20.3467 92.2106C20.2499 92.0308 20.0805 91.8926 19.8385 91.7958C19.6034 91.6921 19.2647 91.6402 18.8222 91.6402H16.8726L17.4637 90.8106V98.1113H16.3437V90.7069ZM19.2578 94.9587L20.3259 94.6891L21.9541 98.1113H20.6992L19.2578 94.9587ZM22.6689 95.4669C22.6689 94.8447 22.776 94.3192 22.9904 93.8906C23.2116 93.455 23.5158 93.1266 23.903 92.9054C24.2901 92.6773 24.736 92.5632 25.2407 92.5632C25.7938 92.5632 26.2467 92.6773 26.5993 92.9054C26.9588 93.1266 27.2249 93.4377 27.3978 93.8387C27.5706 94.2328 27.657 94.6891 27.657 95.2076V95.6847H23.1978V94.9484H27.1178L26.5993 95.301C26.5993 94.8861 26.5612 94.537 26.4852 94.2536C26.4091 93.9632 26.2743 93.7454 26.0807 93.6002C25.8872 93.4481 25.6037 93.3721 25.2304 93.3721C24.8363 93.3721 24.5321 93.4654 24.3178 93.6521C24.1035 93.8387 23.9548 94.0911 23.8718 94.4091C23.7889 94.7202 23.7474 95.0659 23.7474 95.4461C23.7474 96.0753 23.8718 96.5661 24.1207 96.9187C24.3696 97.2644 24.743 97.4373 25.2407 97.4373C25.6556 97.4373 25.9598 97.3612 26.1533 97.2091C26.3469 97.0501 26.4783 96.8358 26.5474 96.5661H27.5741C27.4842 97.0985 27.2491 97.5168 26.8689 97.821C26.4886 98.1252 25.9459 98.2773 25.2407 98.2773C24.418 98.2773 23.782 98.0318 23.3326 97.541C22.8901 97.0432 22.6689 96.3518 22.6689 95.4669ZM28.7376 95.4461C28.7376 94.8654 28.8413 94.3607 29.0487 93.9321C29.263 93.4965 29.5638 93.1612 29.9509 92.9261C30.3381 92.6842 30.8013 92.5632 31.3405 92.5632C31.9973 92.5632 32.5089 92.7256 32.8754 93.0506C33.2487 93.3755 33.4803 93.8215 33.5702 94.3884L32.502 94.5647C32.4398 94.2397 32.3223 93.9736 32.1494 93.7661C31.9766 93.5587 31.7 93.455 31.3198 93.455C30.9741 93.455 30.6941 93.5415 30.4798 93.7143C30.2655 93.8871 30.1099 94.1222 30.0131 94.4195C29.9163 94.7098 29.8679 95.0417 29.8679 95.415C29.8679 95.7884 29.9129 96.1271 30.0028 96.4313C30.0996 96.7286 30.2517 96.9637 30.4591 97.1365C30.6734 97.3024 30.9568 97.3854 31.3094 97.3854C31.7104 97.3854 32.0077 97.2852 32.2013 97.0847C32.3949 96.8773 32.5193 96.5973 32.5746 96.2447H33.6428C33.5598 96.8738 33.3213 97.3716 32.9272 97.738C32.54 98.0975 31.9939 98.2773 31.2887 98.2773C30.4591 98.2773 29.8265 98.0215 29.3909 97.5098C28.9554 96.9982 28.7376 96.3103 28.7376 95.4461ZM34.6645 95.4669C34.6645 94.8447 34.7716 94.3192 34.986 93.8906C35.2072 93.455 35.5114 93.1266 35.8986 92.9054C36.2857 92.6773 36.7316 92.5632 37.2363 92.5632C37.7894 92.5632 38.2423 92.6773 38.5949 92.9054C38.9544 93.1266 39.2205 93.4377 39.3934 93.8387C39.5662 94.2328 39.6526 94.6891 39.6526 95.2076V95.6847H35.1934V94.9484H39.1134L38.5949 95.301C38.5949 94.8861 38.5568 94.537 38.4808 94.2536C38.4047 93.9632 38.2699 93.7454 38.0763 93.6002C37.8828 93.4481 37.5993 93.3721 37.226 93.3721C36.8319 93.3721 36.5277 93.4654 36.3134 93.6521C36.0991 93.8387 35.9504 94.0911 35.8675 94.4091C35.7845 94.7202 35.743 95.0659 35.743 95.4461C35.743 96.0753 35.8675 96.5661 36.1163 96.9187C36.3652 97.2644 36.7386 97.4373 37.2363 97.4373C37.6512 97.4373 37.9554 97.3612 38.1489 97.2091C38.3425 97.0501 38.4739 96.8358 38.543 96.5661H39.5697C39.4798 97.0985 39.2447 97.5168 38.8645 97.821C38.4842 98.1252 37.9415 98.2773 37.2363 98.2773C36.4136 98.2773 35.7776 98.0318 35.3282 97.541C34.8857 97.0432 34.6645 96.3518 34.6645 95.4669ZM40.9095 92.7291H41.9776V94.2536L41.6873 93.9321C41.8877 93.5933 42.1021 93.3271 42.3302 93.1336C42.5584 92.9331 42.7934 92.7879 43.0354 92.698C43.2843 92.6081 43.5401 92.5632 43.8028 92.5632C44.4043 92.5632 44.8537 92.7326 45.151 93.0713C45.4482 93.4101 45.5969 93.894 45.5969 94.5232V98.1113H44.5184V94.7306C44.5184 94.2812 44.4319 93.9632 44.2591 93.7765C44.0932 93.5829 43.8443 93.4861 43.5124 93.4861C43.3258 93.4861 43.1391 93.5207 42.9524 93.5898C42.7658 93.6521 42.5998 93.7558 42.4547 93.901C42.3579 93.9908 42.2749 94.0842 42.2058 94.181C42.1366 94.2777 42.0813 94.3884 42.0398 94.5128C42.0053 94.6303 41.988 94.7721 41.988 94.938V98.1113H40.9095V92.7291ZM47.3508 96.3173V91.2773H48.4293V96.5039C48.4293 96.7528 48.4846 96.9533 48.5952 97.1054C48.7127 97.2575 48.889 97.3336 49.1241 97.3336C49.2693 97.3336 49.3972 97.3232 49.5078 97.3024C49.6184 97.2748 49.7187 97.2506 49.8086 97.2298L49.9848 98.0491C49.8327 98.0975 49.6703 98.139 49.4974 98.1736C49.3246 98.2081 49.1241 98.2254 48.896 98.2254C48.4811 98.2254 48.1597 98.1459 47.9315 97.9869C47.7103 97.8279 47.5582 97.6066 47.4752 97.3232C47.3923 97.0328 47.3508 96.6975 47.3508 96.3173ZM46.5108 92.7291H49.8086V93.5898H46.5108V92.7291ZM53.3862 90.7069H56.041C57.1402 90.7069 57.9975 91.0111 58.6128 91.6195C59.2351 92.221 59.5462 93.1336 59.5462 94.3573C59.5462 95.5948 59.2143 96.5316 58.5506 97.1676C57.8938 97.7968 56.9916 98.1113 55.8439 98.1113H53.3862V90.7069ZM58.3536 94.378C58.3536 93.5207 58.1738 92.857 57.8143 92.3869C57.4548 91.9168 56.8672 91.6817 56.0514 91.6817H53.9254L54.5269 90.8106V98.0076L53.9254 97.1261H55.8854C56.7427 97.1261 57.3684 96.8842 57.7625 96.4002C58.1565 95.9163 58.3536 95.2422 58.3536 94.378ZM60.6735 95.4669C60.6735 94.8447 60.7806 94.3192 60.9949 93.8906C61.2162 93.455 61.5204 93.1266 61.9075 92.9054C62.2947 92.6773 62.7406 92.5632 63.2453 92.5632C63.7984 92.5632 64.2512 92.6773 64.6038 92.9054C64.9633 93.1266 65.2295 93.4377 65.4023 93.8387C65.5752 94.2328 65.6616 94.6891 65.6616 95.2076V95.6847H61.2023V94.9484H65.1223L64.6038 95.301C64.6038 94.8861 64.5658 94.537 64.4898 94.2536C64.4137 93.9632 64.2789 93.7454 64.0853 93.6002C63.8917 93.4481 63.6083 93.3721 63.2349 93.3721C62.8409 93.3721 62.5367 93.4654 62.3223 93.6521C62.108 93.8387 61.9594 94.0911 61.8764 94.4091C61.7935 94.7202 61.752 95.0659 61.752 95.4461C61.752 96.0753 61.8764 96.5661 62.1253 96.9187C62.3742 97.2644 62.7475 97.4373 63.2453 97.4373C63.6601 97.4373 63.9643 97.3612 64.1579 97.2091C64.3515 97.0501 64.4828 96.8358 64.552 96.5661H65.5786C65.4888 97.0985 65.2537 97.5168 64.8735 97.821C64.4932 98.1252 63.9505 98.2773 63.2453 98.2773C62.4226 98.2773 61.7865 98.0318 61.3372 97.541C60.8947 97.0432 60.6735 96.3518 60.6735 95.4669ZM66.5866 96.6284C66.5866 96.2619 66.6626 95.9647 66.8147 95.7365C66.9668 95.5084 67.1708 95.3286 67.4266 95.1973C67.6893 95.059 67.9831 94.9622 68.3081 94.9069C68.6399 94.8516 68.9752 94.817 69.314 94.8032L70.7451 94.7513V95.4669L69.3762 95.5187C68.9407 95.5326 68.595 95.5844 68.3392 95.6743C68.0903 95.7573 67.914 95.8748 67.8103 96.0269C67.7135 96.1721 67.6651 96.3587 67.6651 96.5869C67.6651 96.8358 67.7377 97.0363 67.8829 97.1884C68.035 97.3336 68.2839 97.4061 68.6296 97.4061C68.9476 97.4061 69.2241 97.3543 69.4592 97.2506C69.6942 97.1469 69.8775 96.9913 70.0088 96.7839C70.1402 96.5765 70.2059 96.3242 70.2059 96.0269V94.5647C70.2059 94.1429 70.116 93.8422 69.9362 93.6624C69.7565 93.4758 69.4661 93.3824 69.0651 93.3824C68.6779 93.3824 68.391 93.4481 68.2044 93.5795C68.0177 93.7108 67.8967 93.894 67.8414 94.1291L66.8562 94.0254C66.953 93.5276 67.1881 93.1612 67.5614 92.9261C67.9417 92.6842 68.4567 92.5632 69.1066 92.5632C69.8947 92.5632 70.4513 92.7464 70.7762 93.1128C71.1012 93.4723 71.2636 93.9839 71.2636 94.6476V98.1113H70.2266V96.9706L70.4029 97.1884C70.2024 97.4718 69.9431 97.7173 69.6251 97.9247C69.314 98.1321 68.913 98.2358 68.4221 98.2358C67.876 98.2358 67.4335 98.101 67.0947 97.8313C66.756 97.5617 66.5866 97.1607 66.5866 96.6284ZM72.6937 90.7069H73.7826V98.1113H72.6937V90.7069ZM75.1961 96.7528H76.368V98.1113H75.1961V96.7528ZM75.1961 92.7291H76.368V94.0876H75.1961V92.7291ZM84.2816 95.2698L82.5809 90.8106H83.3275L81.6475 95.2698L81.3986 95.9958L80.6001 98.1113H79.6046L82.4875 90.7069H83.4935L86.366 98.1113H85.329L84.5305 95.9958L84.2816 95.2698ZM81.0357 95.218H84.8935V96.0476H81.0357V95.218ZM87.4013 90.7069H89.8591C90.5643 90.7069 91.1035 90.7933 91.4769 90.9661C91.8571 91.1321 92.1198 91.3602 92.265 91.6506C92.4102 91.934 92.4828 92.2521 92.4828 92.6047C92.4828 92.9918 92.3756 93.3375 92.1613 93.6417C91.947 93.939 91.5737 94.174 91.0413 94.3469V94.0669C91.4769 94.1775 91.8156 94.3296 92.0576 94.5232C92.2996 94.7168 92.469 94.938 92.5658 95.1869C92.6625 95.4358 92.7109 95.695 92.7109 95.9647C92.7109 96.3656 92.6245 96.7286 92.4517 97.0536C92.2858 97.3785 92.0092 97.6377 91.622 97.8313C91.2349 98.018 90.7095 98.1113 90.0458 98.1113H87.4013V90.7069ZM91.7569 95.9958C91.7569 95.5602 91.6255 95.2284 91.3628 95.0002C91.107 94.7652 90.6818 94.6476 90.0872 94.6476H87.8472V93.8387H89.9835C90.5366 93.8387 90.9341 93.7385 91.1761 93.538C91.425 93.3306 91.5495 93.0298 91.5495 92.6358C91.5495 92.2348 91.4181 91.9444 91.1554 91.7647C90.8996 91.5849 90.4571 91.495 89.828 91.495H87.8472L88.3346 90.8106V98.0076L87.8472 97.3232H90.0146C90.4709 97.3232 90.8235 97.2713 91.0724 97.1676C91.3282 97.057 91.5045 96.9015 91.6013 96.701C91.705 96.5005 91.7569 96.2654 91.7569 95.9958ZM93.7981 94.4195C93.7981 93.5898 93.9433 92.8847 94.2337 92.3039C94.524 91.7232 94.9181 91.2807 95.4159 90.9765C95.9137 90.6723 96.4771 90.5202 97.1063 90.5202C97.7147 90.5202 98.2124 90.6239 98.5996 90.8313C98.9937 91.0318 99.3013 91.3153 99.5226 91.6817C99.7507 92.0481 99.9166 92.4698 100.02 92.9469L99.087 93.1024C99.004 92.736 98.8865 92.4249 98.7344 92.1691C98.5823 91.9064 98.3749 91.7059 98.1122 91.5676C97.8564 91.4224 97.5211 91.3498 97.1063 91.3498C96.6154 91.3498 96.1971 91.4777 95.8515 91.7336C95.5058 91.9894 95.2431 92.3489 95.0633 92.8121C94.8836 93.2684 94.7937 93.8007 94.7937 94.4091C94.7937 95.0175 94.8836 95.5533 95.0633 96.0165C95.2431 96.4728 95.5058 96.8289 95.8515 97.0847C96.204 97.3405 96.6258 97.4684 97.1166 97.4684C97.5729 97.4684 97.9359 97.3923 98.2055 97.2402C98.4821 97.0881 98.6929 96.8773 98.8381 96.6076C98.9833 96.338 99.0836 96.0269 99.1389 95.6743H100.124C100.069 96.1721 99.9201 96.6215 99.6781 97.0224C99.4431 97.4165 99.1112 97.7276 98.6826 97.9558C98.2608 98.1839 97.7354 98.298 97.1063 98.298C96.4287 98.298 95.8411 98.1459 95.3433 97.8417C94.8524 97.5306 94.4722 97.0881 94.2026 96.5143C93.9329 95.9336 93.7981 95.2353 93.7981 94.4195ZM103.936 90.7069H106.363C106.916 90.7069 107.369 90.7691 107.722 90.8936C108.081 91.0111 108.358 91.1736 108.551 91.381C108.752 91.5815 108.89 91.8061 108.966 92.055C109.049 92.297 109.09 92.5459 109.09 92.8017C109.09 93.2995 108.976 93.7212 108.748 94.0669C108.52 94.4126 108.15 94.6753 107.639 94.855L107.047 94.9898C106.958 95.0037 106.844 95.0175 106.705 95.0313C106.574 95.0382 106.453 95.0417 106.342 95.0417H104.382V94.2224H106.456C106.899 94.2224 107.238 94.1671 107.473 94.0565C107.715 93.939 107.881 93.7765 107.97 93.5691C108.067 93.3548 108.116 93.1059 108.116 92.8224C108.116 92.5459 108.064 92.3108 107.96 92.1173C107.856 91.9237 107.677 91.775 107.421 91.6713C107.165 91.5676 106.802 91.5158 106.332 91.5158H104.382L104.88 90.8106V98.1113H103.936V90.7069ZM106.84 94.855L107.753 94.6373L109.381 98.1113H108.313L106.84 94.855ZM110.14 95.4461C110.14 94.8585 110.247 94.3538 110.461 93.9321C110.676 93.5034 110.98 93.1716 111.374 92.9365C111.768 92.7015 112.228 92.5839 112.753 92.5839C113.292 92.5839 113.752 92.698 114.132 92.9261C114.52 93.1543 114.817 93.4792 115.024 93.901C115.232 94.3227 115.335 94.8239 115.335 95.4047C115.335 95.9923 115.228 96.5005 115.014 96.9291C114.806 97.3577 114.506 97.6896 114.112 97.9247C113.724 98.1597 113.261 98.2773 112.722 98.2773C111.906 98.2773 111.27 98.0249 110.814 97.5202C110.364 97.0155 110.14 96.3242 110.14 95.4461ZM111.094 95.4254C111.094 96.0407 111.222 96.5454 111.478 96.9395C111.733 97.3336 112.152 97.5306 112.732 97.5306C113.12 97.5306 113.434 97.4407 113.676 97.261C113.918 97.0812 114.094 96.8323 114.205 96.5143C114.323 96.1894 114.381 95.8229 114.381 95.415C114.381 94.7997 114.25 94.2985 113.987 93.9113C113.731 93.5242 113.313 93.3306 112.732 93.3306C112.159 93.3306 111.74 93.5276 111.478 93.9217C111.222 94.3089 111.094 94.8101 111.094 95.4254ZM116.472 95.4461C116.472 94.8585 116.579 94.3538 116.793 93.9321C117.008 93.5034 117.312 93.1716 117.706 92.9365C118.1 92.7015 118.56 92.5839 119.085 92.5839C119.624 92.5839 120.084 92.698 120.464 92.9261C120.852 93.1543 121.149 93.4792 121.356 93.901C121.564 94.3227 121.667 94.8239 121.667 95.4047C121.667 95.9923 121.56 96.5005 121.346 96.9291C121.138 97.3577 120.838 97.6896 120.444 97.9247C120.056 98.1597 119.593 98.2773 119.054 98.2773C118.238 98.2773 117.602 98.0249 117.146 97.5202C116.696 97.0155 116.472 96.3242 116.472 95.4461ZM117.426 95.4254C117.426 96.0407 117.554 96.5454 117.81 96.9395C118.065 97.3336 118.484 97.5306 119.064 97.5306C119.452 97.5306 119.766 97.4407 120.008 97.261C120.25 97.0812 120.426 96.8323 120.537 96.5143C120.655 96.1894 120.713 95.8229 120.713 95.415C120.713 94.7997 120.582 94.2985 120.319 93.9113C120.063 93.5242 119.645 93.3306 119.064 93.3306C118.491 93.3306 118.072 93.5276 117.81 93.9217C117.554 94.3089 117.426 94.8101 117.426 95.4254ZM123.302 92.2832C123.302 91.896 123.374 91.5815 123.519 91.3395C123.671 91.0975 123.872 90.9177 124.121 90.8002C124.37 90.6827 124.639 90.6239 124.93 90.6239C125.089 90.6239 125.241 90.6343 125.386 90.655C125.538 90.6689 125.69 90.7 125.842 90.7484L125.697 91.4536C125.587 91.419 125.479 91.3982 125.376 91.3913C125.279 91.3775 125.182 91.3706 125.085 91.3706C124.843 91.3706 124.636 91.4363 124.463 91.5676C124.29 91.6921 124.204 91.9237 124.204 92.2624V98.1113H123.302V92.2832ZM122.462 92.7498H125.562V93.4654H122.462V92.7498ZM126.465 92.7498H127.367V98.1113H126.465V92.7498ZM126.444 90.7069H127.367V91.7543H126.444V90.7069ZM128.877 92.7498H129.768V94.2121L129.509 93.9424C129.71 93.6106 129.924 93.3479 130.152 93.1543C130.38 92.9538 130.619 92.8086 130.868 92.7187C131.117 92.6289 131.376 92.5839 131.646 92.5839C132.254 92.5839 132.703 92.7533 132.994 93.0921C133.291 93.4239 133.44 93.9079 133.44 94.5439V98.1113H132.537V94.7202C132.537 94.2224 132.444 93.8733 132.257 93.6728C132.078 93.4654 131.805 93.3617 131.438 93.3617C131.245 93.3617 131.047 93.3963 130.847 93.4654C130.646 93.5345 130.467 93.6452 130.308 93.7973C130.197 93.894 130.1 93.9977 130.017 94.1084C129.941 94.2121 129.883 94.3331 129.841 94.4713C129.8 94.6027 129.779 94.7582 129.779 94.938V98.1113H128.877V92.7498ZM138.773 97.6654V96.6284L138.949 96.8254C138.735 97.1849 138.466 97.4718 138.141 97.6861C137.823 97.9005 137.439 98.0076 136.989 98.0076C136.471 98.0076 136.042 97.8866 135.704 97.6447C135.372 97.4027 135.123 97.0777 134.957 96.6698C134.791 96.255 134.708 95.8022 134.708 95.3113C134.708 94.7652 134.805 94.2881 134.998 93.8802C135.192 93.4723 135.465 93.1543 135.818 92.9261C136.177 92.698 136.602 92.5839 137.093 92.5839C137.439 92.5839 137.778 92.6669 138.109 92.8328C138.448 92.9918 138.746 93.3064 139.001 93.7765L138.784 93.901V92.7498H139.675V97.2402C139.675 97.8555 139.61 98.3879 139.478 98.8373C139.354 99.2866 139.119 99.6323 138.773 99.8743C138.434 100.116 137.937 100.237 137.28 100.237C136.575 100.237 136.022 100.109 135.621 99.8536C135.22 99.6047 134.985 99.1898 134.915 98.6091H135.807C135.883 98.9271 136.029 99.1553 136.243 99.2936C136.464 99.4387 136.806 99.5113 137.269 99.5113C137.843 99.5113 138.237 99.3523 138.452 99.0343C138.666 98.7232 138.773 98.2669 138.773 97.6654ZM138.794 95.2284C138.794 94.6545 138.666 94.1948 138.41 93.8491C138.154 93.5034 137.76 93.3306 137.228 93.3306C136.786 93.3306 136.412 93.4861 136.108 93.7973C135.811 94.1015 135.662 94.6027 135.662 95.301C135.662 95.778 135.735 96.1617 135.88 96.4521C136.025 96.7355 136.212 96.9395 136.44 97.0639C136.675 97.1884 136.917 97.2506 137.166 97.2506C137.719 97.2506 138.127 97.0777 138.389 96.7321C138.659 96.3795 138.794 95.937 138.794 95.4047V95.2284ZM143.433 94.9484C143.433 94.1326 143.537 93.3375 143.745 92.5632C143.952 91.7819 144.249 91.094 144.636 90.4995H145.497C145.096 91.2116 144.813 91.934 144.647 92.6669C144.481 93.3997 144.398 94.1602 144.398 94.9484C144.398 95.7365 144.481 96.497 144.647 97.2298C144.813 97.9627 145.096 98.6852 145.497 99.3973H144.636C144.249 98.8027 143.952 98.1182 143.745 97.3439C143.537 96.5627 143.433 95.7642 143.433 94.9484ZM146.386 97.3647C146.586 97.1918 146.783 97.019 146.977 96.8461C147.177 96.6733 147.375 96.5005 147.568 96.3276C147.769 96.1548 147.966 95.9819 148.159 95.8091C148.491 95.5187 148.781 95.256 149.03 95.021C149.279 94.779 149.487 94.5474 149.653 94.3261C149.818 94.1049 149.943 93.8802 150.026 93.6521C150.109 93.4239 150.15 93.1785 150.15 92.9158C150.15 92.4802 150.033 92.1484 149.798 91.9202C149.563 91.6852 149.234 91.5676 148.813 91.5676C148.474 91.5676 148.197 91.616 147.983 91.7128C147.775 91.8096 147.61 91.9548 147.485 92.1484C147.368 92.335 147.267 92.5701 147.184 92.8536L146.324 92.7187C146.407 92.3869 146.535 92.0723 146.707 91.775C146.887 91.4708 147.146 91.2254 147.485 91.0387C147.824 90.8452 148.273 90.7484 148.833 90.7484C149.566 90.7484 150.126 90.9454 150.513 91.3395C150.907 91.7266 151.104 92.2279 151.104 92.8432C151.104 93.1543 151.059 93.4447 150.97 93.7143C150.887 93.9839 150.755 94.2501 150.575 94.5128C150.396 94.7686 150.168 95.0382 149.891 95.3217C149.615 95.5982 149.286 95.899 148.906 96.2239C148.671 96.4244 148.412 96.6456 148.128 96.8876C147.845 97.1296 147.509 97.4131 147.122 97.738V97.2817H151.177L151.042 98.1113H146.386V97.3647ZM152.388 94.5336C152.388 93.2338 152.627 92.2797 153.104 91.6713C153.588 91.056 154.234 90.7484 155.043 90.7484C155.866 90.7484 156.505 91.056 156.962 91.6713C157.425 92.2797 157.656 93.2338 157.656 94.5336C157.656 95.8264 157.421 96.777 156.951 97.3854C156.488 97.9938 155.838 98.298 155.002 98.298C154.179 98.298 153.536 97.9938 153.073 97.3854C152.616 96.777 152.388 95.8264 152.388 94.5336ZM153.353 94.5336C153.353 95.1489 153.404 95.6777 153.508 96.1202C153.619 96.5627 153.795 96.9015 154.037 97.1365C154.279 97.3716 154.607 97.4891 155.022 97.4891C155.437 97.4891 155.765 97.3716 156.007 97.1365C156.249 96.9015 156.422 96.5627 156.526 96.1202C156.637 95.6777 156.692 95.1489 156.692 94.5336C156.692 93.9182 156.637 93.3894 156.526 92.9469C156.422 92.5044 156.249 92.1656 156.007 91.9306C155.765 91.6886 155.437 91.5676 155.022 91.5676C154.607 91.5676 154.279 91.6886 154.037 91.9306C153.795 92.1656 153.619 92.5044 153.508 92.9469C153.404 93.3894 153.353 93.9182 153.353 94.5336ZM158.868 97.3647C159.068 97.1918 159.265 97.019 159.459 96.8461C159.659 96.6733 159.856 96.5005 160.05 96.3276C160.25 96.1548 160.447 95.9819 160.641 95.8091C160.973 95.5187 161.263 95.256 161.512 95.021C161.761 94.779 161.968 94.5474 162.134 94.3261C162.3 94.1049 162.425 93.8802 162.508 93.6521C162.591 93.4239 162.632 93.1785 162.632 92.9158C162.632 92.4802 162.514 92.1484 162.279 91.9202C162.044 91.6852 161.716 91.5676 161.294 91.5676C160.955 91.5676 160.679 91.616 160.465 91.7128C160.257 91.8096 160.091 91.9548 159.967 92.1484C159.849 92.335 159.749 92.5701 159.666 92.8536L158.805 92.7187C158.888 92.3869 159.016 92.0723 159.189 91.775C159.369 91.4708 159.628 91.2254 159.967 91.0387C160.306 90.8452 160.755 90.7484 161.315 90.7484C162.048 90.7484 162.608 90.9454 162.995 91.3395C163.389 91.7266 163.586 92.2279 163.586 92.8432C163.586 93.1543 163.541 93.4447 163.451 93.7143C163.368 93.9839 163.237 94.2501 163.057 94.5128C162.877 94.7686 162.649 95.0382 162.373 95.3217C162.096 95.5982 161.768 95.899 161.388 96.2239C161.153 96.4244 160.893 96.6456 160.61 96.8876C160.326 97.1296 159.991 97.4131 159.604 97.738V97.2817H163.659L163.524 98.1113H158.868V97.3647ZM168.261 91.0491L168.697 91.5365L165.503 95.9854L165.409 95.5913H170.117L169.993 96.3276H164.839V95.6536L168.251 90.9454H169.132V98.1113H168.261V91.0491ZM171.889 94.9484C171.889 94.1602 171.806 93.3997 171.64 92.6669C171.474 91.934 171.19 91.2116 170.789 90.4995H171.65C172.037 91.094 172.334 91.7819 172.542 92.5632C172.749 93.3375 172.853 94.1326 172.853 94.9484C172.853 95.7642 172.749 96.5627 172.542 97.3439C172.334 98.1182 172.037 98.8027 171.65 99.3973H170.789C171.19 98.6852 171.474 97.9627 171.64 97.2298C171.806 96.497 171.889 95.7365 171.889 94.9484Z" fill="#171514"/>
<path d="M196.27 90.7069H197.421V98.0076L196.798 97.095H201.154L201.009 98.1113H196.27V90.7069ZM201.977 95.4669C201.977 94.8447 202.084 94.3192 202.299 93.8906C202.52 93.455 202.824 93.1266 203.211 92.9054C203.598 92.6773 204.044 92.5632 204.549 92.5632C205.102 92.5632 205.555 92.6773 205.907 92.9054C206.267 93.1266 206.533 93.4377 206.706 93.8387C206.879 94.2328 206.965 94.6891 206.965 95.2076V95.6847H202.506V94.9484H206.426L205.907 95.301C205.907 94.8861 205.869 94.537 205.793 94.2536C205.717 93.9632 205.582 93.7454 205.389 93.6002C205.195 93.4481 204.912 93.3721 204.539 93.3721C204.144 93.3721 203.84 93.4654 203.626 93.6521C203.412 93.8387 203.263 94.0911 203.18 94.4091C203.097 94.7202 203.056 95.0659 203.056 95.4461C203.056 96.0753 203.18 96.5661 203.429 96.9187C203.678 97.2644 204.051 97.4373 204.549 97.4373C204.964 97.4373 205.268 97.3612 205.461 97.2091C205.655 97.0501 205.786 96.8358 205.856 96.5661H206.882C206.792 97.0985 206.557 97.5168 206.177 97.821C205.797 98.1252 205.254 98.2773 204.549 98.2773C203.726 98.2773 203.09 98.0318 202.641 97.541C202.198 97.0432 201.977 96.3518 201.977 95.4669ZM207.89 96.6284C207.89 96.2619 207.966 95.9647 208.118 95.7365C208.27 95.5084 208.474 95.3286 208.73 95.1973C208.993 95.059 209.287 94.9622 209.612 94.9069C209.943 94.8516 210.279 94.817 210.618 94.8032L212.049 94.7513V95.4669L210.68 95.5187C210.244 95.5326 209.899 95.5844 209.643 95.6743C209.394 95.7573 209.218 95.8748 209.114 96.0269C209.017 96.1721 208.969 96.3587 208.969 96.5869C208.969 96.8358 209.041 97.0363 209.186 97.1884C209.339 97.3336 209.587 97.4061 209.933 97.4061C210.251 97.4061 210.528 97.3543 210.763 97.2506C210.998 97.1469 211.181 96.9913 211.312 96.7839C211.444 96.5765 211.509 96.3242 211.509 96.0269V94.5647C211.509 94.1429 211.42 93.8422 211.24 93.6624C211.06 93.4758 210.77 93.3824 210.369 93.3824C209.982 93.3824 209.695 93.4481 209.508 93.5795C209.321 93.7108 209.2 93.894 209.145 94.1291L208.16 94.0254C208.257 93.5276 208.492 93.1612 208.865 92.9261C209.245 92.6842 209.76 92.5632 210.41 92.5632C211.198 92.5632 211.755 92.7464 212.08 93.1128C212.405 93.4723 212.567 93.9839 212.567 94.6476V98.1113H211.53V96.9706L211.706 97.1884C211.506 97.4718 211.247 97.7173 210.929 97.9247C210.618 98.1321 210.217 98.2358 209.726 98.2358C209.18 98.2358 208.737 98.101 208.398 97.8313C208.06 97.5617 207.89 97.1607 207.89 96.6284ZM213.987 92.7291H215.055V94.575L214.868 93.8387C215.069 93.4516 215.318 93.1543 215.615 92.9469C215.912 92.7395 216.244 92.6358 216.611 92.6358C216.811 92.6358 216.974 92.6531 217.098 92.6876L216.963 93.6624C216.887 93.6486 216.811 93.6382 216.735 93.6313C216.666 93.6175 216.59 93.6106 216.507 93.6106C216.341 93.6106 216.175 93.6382 216.009 93.6936C215.843 93.7489 215.684 93.8387 215.532 93.9632C215.387 94.0876 215.273 94.2363 215.19 94.4091C215.107 94.575 215.065 94.7686 215.065 94.9898V98.1113H213.987V92.7291ZM218.01 92.7291H219.078V94.2536L218.788 93.9321C218.988 93.5933 219.202 93.3271 219.431 93.1336C219.659 92.9331 219.894 92.7879 220.136 92.698C220.385 92.6081 220.64 92.5632 220.903 92.5632C221.505 92.5632 221.954 92.7326 222.251 93.0713C222.549 93.4101 222.697 93.894 222.697 94.5232V98.1113H221.619V94.7306C221.619 94.2812 221.532 93.9632 221.359 93.7765C221.194 93.5829 220.945 93.4861 220.613 93.4861C220.426 93.4861 220.239 93.5207 220.053 93.5898C219.866 93.6521 219.7 93.7558 219.555 93.901C219.458 93.9908 219.375 94.0842 219.306 94.181C219.237 94.2777 219.182 94.3884 219.14 94.5128C219.106 94.6303 219.088 94.7721 219.088 94.938V98.1113H218.01V92.7291ZM226.615 90.7069H228.015L230.484 97.3647H230.027L232.537 90.7069H233.895V98.1113H232.827V90.8106L233.47 90.8417L230.681 98.1113H229.778L227.02 90.8313L227.663 90.8106V98.1113H226.615V90.7069ZM235.28 95.4358C235.28 94.8481 235.387 94.34 235.602 93.9113C235.816 93.4827 236.124 93.1508 236.525 92.9158C236.926 92.6807 237.396 92.5632 237.935 92.5632C238.481 92.5632 238.948 92.6773 239.335 92.9054C239.729 93.1336 240.03 93.4585 240.237 93.8802C240.451 94.3019 240.559 94.8066 240.559 95.3943C240.559 95.9889 240.451 96.5005 240.237 96.9291C240.023 97.3577 239.715 97.6896 239.314 97.9247C238.92 98.1597 238.45 98.2773 237.904 98.2773C237.074 98.2773 236.428 98.0249 235.965 97.5202C235.508 97.0155 235.28 96.3207 235.28 95.4358ZM236.41 95.415C236.41 96.0027 236.528 96.4797 236.763 96.8461C236.998 97.2056 237.382 97.3854 237.914 97.3854C238.267 97.3854 238.554 97.3024 238.775 97.1365C238.996 96.9706 239.159 96.739 239.262 96.4417C239.373 96.1375 239.428 95.7918 239.428 95.4047C239.428 94.8239 239.307 94.3538 239.065 93.9943C238.83 93.6348 238.447 93.455 237.914 93.455C237.389 93.455 237.005 93.6382 236.763 94.0047C236.528 94.3642 236.41 94.8343 236.41 95.415ZM241.839 92.7291H242.907V94.575L242.721 93.8387C242.921 93.4516 243.17 93.1543 243.467 92.9469C243.764 92.7395 244.096 92.6358 244.463 92.6358C244.663 92.6358 244.826 92.6531 244.95 92.6876L244.815 93.6624C244.739 93.6486 244.663 93.6382 244.587 93.6313C244.518 93.6175 244.442 93.6106 244.359 93.6106C244.193 93.6106 244.027 93.6382 243.861 93.6936C243.695 93.7489 243.536 93.8387 243.384 93.9632C243.239 94.0876 243.125 94.2363 243.042 94.4091C242.959 94.575 242.918 94.7686 242.918 94.9898V98.1113H241.839V92.7291ZM245.503 95.4669C245.503 94.8447 245.611 94.3192 245.825 93.8906C246.046 93.455 246.35 93.1266 246.737 92.9054C247.125 92.6773 247.571 92.5632 248.075 92.5632C248.628 92.5632 249.081 92.6773 249.434 92.9054C249.793 93.1266 250.059 93.4377 250.232 93.8387C250.405 94.2328 250.492 94.6891 250.492 95.2076V95.6847H246.032V94.9484H249.952L249.434 95.301C249.434 94.8861 249.396 94.537 249.32 94.2536C249.244 93.9632 249.109 93.7454 248.915 93.6002C248.722 93.4481 248.438 93.3721 248.065 93.3721C247.671 93.3721 247.367 93.4654 247.152 93.6521C246.938 93.8387 246.789 94.0911 246.706 94.4091C246.623 94.7202 246.582 95.0659 246.582 95.4461C246.582 96.0753 246.706 96.5661 246.955 96.9187C247.204 97.2644 247.577 97.4373 248.075 97.4373C248.49 97.4373 248.794 97.3612 248.988 97.2091C249.181 97.0501 249.313 96.8358 249.382 96.5661H250.409C250.319 97.0985 250.084 97.5168 249.703 97.821C249.323 98.1252 248.78 98.2773 248.075 98.2773C247.253 98.2773 246.616 98.0318 246.167 97.541C245.725 97.0432 245.503 96.3518 245.503 95.4669Z" fill="#333333"/>
<path d="M256.181 92.6797H261.042M261.042 92.6797V97.5408M261.042 92.6797L256.181 97.5408" stroke="#333333" stroke-width="0.972222" stroke-linecap="round" stroke-linejoin="round"/>
<path d="M0 141.555C0 137.26 3.48223 133.777 7.77778 133.777H272.222C276.518 133.777 280 137.26 280 141.555V203.777C280 208.073 276.518 211.555 272.222 211.555H7.77776C3.48222 211.555 0 208.073 0 203.777V141.555Z" fill="white"/>
<path d="M32.5555 156.544V151.92C32.5555 151.351 32.1508 150.924 31.6111 150.924H27.2262C26.4167 150.924 25.6071 151.208 24.9325 151.635C24.5952 151.849 24.3254 152.133 24.0555 152.489C23.3135 151.564 22.1667 150.924 20.8849 150.924H16.5C15.9603 150.924 15.5555 151.351 15.5555 151.92V156.544C15.5555 157.896 16.1627 159.035 17.0397 159.888C16.1627 160.671 15.5555 161.88 15.5555 163.232V167.857C15.5555 168.426 15.9603 168.853 16.5 168.853H20.8849C21.4246 168.853 21.8294 168.426 21.8294 167.857C21.8294 167.287 21.4246 166.861 20.8849 166.861H17.4444V163.232C17.4444 161.951 18.3889 160.955 19.6032 160.955H23.0436V164.584C23.0436 167.003 24.8651 168.924 27.1587 168.924H31.5436C32.0833 168.924 32.4881 168.497 32.4881 167.928V163.303C32.4881 161.951 31.8809 160.813 31.004 159.959C32.0159 159.106 32.5555 157.896 32.5555 156.544ZM19.6706 158.892C18.4563 158.892 17.5119 157.896 17.5119 156.616V152.916H20.9524C22.1667 152.916 23.1111 153.912 23.1111 155.193V158.821H19.6706V158.892ZM30.6667 163.232V166.861H27.2262C26.0119 166.861 25.0674 165.865 25.0674 164.584V160.955H28.5079C29.6547 160.884 30.6667 161.951 30.6667 163.232ZM25 158.892V155.264C25 154.481 25.3373 153.77 25.9444 153.343C26.2817 153.058 26.754 152.916 27.1587 152.916H30.5992V156.544C30.5992 157.825 29.6547 158.821 28.4405 158.821H25V158.892Z" fill="black"/>
<path d="M41.3496 163.666C41.3496 164.07 41.4844 164.356 41.7541 164.522C42.0341 164.688 42.4281 164.781 42.9363 164.802V165.424H38.3318V164.802C38.84 164.781 39.2289 164.688 39.4985 164.522C39.7785 164.356 39.9185 164.07 39.9185 163.666V156.293C39.9185 155.888 39.7785 155.603 39.4985 155.437C39.2289 155.271 38.84 155.178 38.3318 155.157V154.535H42.6096C43.5844 154.535 44.3881 154.659 45.0207 154.908C45.6533 155.147 46.12 155.473 46.4207 155.888C46.7318 156.303 46.8874 156.775 46.8874 157.304C46.8874 157.76 46.7889 158.159 46.5918 158.502C46.3948 158.833 46.1407 159.119 45.8296 159.357C45.5185 159.585 45.1918 159.767 44.8496 159.902C44.5178 160.036 44.2118 160.135 43.9318 160.197L48.4585 165.035V165.424H46.7163L42.2674 160.384H41.3496V163.666ZM42.2985 155.25H41.3496V159.73H42.3607C43.2837 159.73 44.0044 159.539 44.5229 159.155C45.0415 158.761 45.3007 158.185 45.3007 157.428C45.3007 156.765 45.0415 156.236 44.5229 155.842C44.0148 155.448 43.2733 155.25 42.2985 155.25ZM50.1459 161.162C50.1459 161.753 50.2548 162.287 50.4726 162.764C50.7007 163.241 51.0118 163.619 51.4059 163.899C51.8104 164.179 52.2718 164.319 52.7904 164.319C53.1533 164.319 53.5111 164.252 53.8637 164.117C54.2267 163.982 54.5585 163.744 54.8592 163.402L55.2015 163.697C54.9422 164.236 54.5689 164.688 54.0815 165.05C53.5941 165.403 53.0133 165.579 52.3392 165.579C51.6963 165.579 51.1155 165.419 50.597 165.097C50.0889 164.776 49.6844 164.33 49.3837 163.759C49.0933 163.189 48.9481 162.53 48.9481 161.784C48.9481 161.016 49.0933 160.327 49.3837 159.715C49.6844 159.103 50.0837 158.616 50.5815 158.253C51.0896 157.89 51.6548 157.708 52.277 157.708C52.7748 157.708 53.2052 157.807 53.5681 158.004C53.9311 158.201 54.2267 158.465 54.4548 158.797C54.683 159.119 54.8489 159.471 54.9526 159.855C55.0667 160.239 55.1237 160.612 55.1237 160.975H50.1459C50.1459 161.027 50.1459 161.089 50.1459 161.162ZM52.0281 158.439C51.6341 158.439 51.2659 158.6 50.9237 158.922C50.5918 159.233 50.3637 159.684 50.2392 160.275H53.6148C53.6148 159.964 53.5526 159.668 53.4281 159.388C53.3141 159.108 53.1378 158.88 52.8992 158.704C52.6711 158.528 52.3807 158.439 52.0281 158.439ZM57.4376 161.162C57.4376 161.753 57.5465 162.287 57.7642 162.764C57.9924 163.241 58.3035 163.619 58.6976 163.899C59.102 164.179 59.5635 164.319 60.082 164.319C60.445 164.319 60.8028 164.252 61.1554 164.117C61.5183 163.982 61.8502 163.744 62.1509 163.402L62.4931 163.697C62.2339 164.236 61.8605 164.688 61.3731 165.05C60.8857 165.403 60.305 165.579 59.6309 165.579C58.988 165.579 58.4072 165.419 57.8887 165.097C57.3805 164.776 56.9761 164.33 56.6754 163.759C56.385 163.189 56.2398 162.53 56.2398 161.784C56.2398 161.016 56.385 160.327 56.6754 159.715C56.9761 159.103 57.3754 158.616 57.8731 158.253C58.3813 157.89 58.9465 157.708 59.5687 157.708C60.0665 157.708 60.4968 157.807 60.8598 158.004C61.2228 158.201 61.5183 158.465 61.7465 158.797C61.9746 159.119 62.1405 159.471 62.2442 159.855C62.3583 160.239 62.4154 160.612 62.4154 160.975H57.4376C57.4376 161.027 57.4376 161.089 57.4376 161.162ZM59.3198 158.439C58.9257 158.439 58.5576 158.6 58.2154 158.922C57.8835 159.233 57.6554 159.684 57.5309 160.275H60.9065C60.9065 159.964 60.8442 159.668 60.7198 159.388C60.6057 159.108 60.4294 158.88 60.1909 158.704C59.9628 158.528 59.6724 158.439 59.3198 158.439ZM66.8759 158.439C66.5026 158.439 66.1552 158.559 65.8337 158.797C65.5226 159.025 65.2685 159.357 65.0715 159.793C64.8744 160.228 64.7759 160.757 64.7759 161.379C64.7759 161.898 64.8692 162.385 65.0559 162.842C65.2426 163.288 65.5122 163.645 65.8648 163.915C66.2278 164.185 66.6581 164.319 67.1559 164.319C67.5085 164.319 67.8559 164.252 68.1981 164.117C68.5404 163.982 68.8567 163.744 69.147 163.402L69.4737 163.697C69.2144 164.236 68.8515 164.688 68.3848 165.05C67.9181 165.403 67.3633 165.579 66.7204 165.579C66.1085 165.579 65.5589 165.419 65.0715 165.097C64.5944 164.776 64.2159 164.33 63.9359 163.759C63.6663 163.189 63.5315 162.53 63.5315 161.784C63.5315 161.016 63.6922 160.327 64.0137 159.715C64.3352 159.103 64.7707 158.616 65.3204 158.253C65.8804 157.89 66.4974 157.708 67.1715 157.708C67.5552 157.708 67.9181 157.776 68.2604 157.91C68.6026 158.035 68.8774 158.216 69.0848 158.455C69.3026 158.693 69.4115 158.979 69.4115 159.31C69.4115 159.539 69.3441 159.73 69.2092 159.886C69.0744 160.031 68.893 160.104 68.6648 160.104C68.3018 160.104 68.0633 159.886 67.9492 159.45C67.8663 159.108 67.747 158.854 67.5915 158.688C67.4463 158.522 67.2078 158.439 66.8759 158.439ZM71.4892 161.162C71.4892 161.753 71.5981 162.287 71.8159 162.764C72.044 163.241 72.3552 163.619 72.7492 163.899C73.1537 164.179 73.6152 164.319 74.1337 164.319C74.4966 164.319 74.8544 164.252 75.207 164.117C75.57 163.982 75.9018 163.744 76.2026 163.402L76.5448 163.697C76.2855 164.236 75.9122 164.688 75.4248 165.05C74.9374 165.403 74.3566 165.579 73.6826 165.579C73.0396 165.579 72.4589 165.419 71.9403 165.097C71.4322 164.776 71.0277 164.33 70.727 163.759C70.4366 163.189 70.2915 162.53 70.2915 161.784C70.2915 161.016 70.4366 160.327 70.727 159.715C71.0277 159.103 71.427 158.616 71.9248 158.253C72.4329 157.89 72.9981 157.708 73.6203 157.708C74.1181 157.708 74.5485 157.807 74.9115 158.004C75.2744 158.201 75.57 158.465 75.7981 158.797C76.0263 159.119 76.1922 159.471 76.2959 159.855C76.41 160.239 76.467 160.612 76.467 160.975H71.4892C71.4892 161.027 71.4892 161.089 71.4892 161.162ZM73.3715 158.439C72.9774 158.439 72.6092 158.6 72.267 158.922C71.9352 159.233 71.707 159.684 71.5826 160.275H74.9581C74.9581 159.964 74.8959 159.668 74.7715 159.388C74.6574 159.108 74.4811 158.88 74.2426 158.704C74.0144 158.528 73.724 158.439 73.3715 158.439ZM82.9055 156.293V163.557C82.9055 163.972 83.0404 164.278 83.31 164.475C83.5796 164.672 84.0567 164.77 84.7411 164.77C85.4878 164.77 86.0685 164.656 86.4833 164.428C86.9085 164.2 87.23 163.894 87.4478 163.51C87.6655 163.116 87.8522 162.686 88.0078 162.219H88.7233L88.1789 165.424H79.8878V164.802C80.3959 164.781 80.7848 164.688 81.0544 164.522C81.3344 164.356 81.4744 164.07 81.4744 163.666V156.293C81.4744 155.888 81.3344 155.603 81.0544 155.437C80.7848 155.271 80.3959 155.178 79.8878 155.157V154.535H84.4922V155.157C83.9841 155.178 83.59 155.271 83.31 155.437C83.0404 155.603 82.9055 155.888 82.9055 156.293ZM97.5986 154.535V157.522H96.9764C96.8416 156.744 96.6134 156.168 96.292 155.795C95.9705 155.411 95.426 155.219 94.6586 155.219H93.492V163.666C93.492 164.07 93.6371 164.35 93.9275 164.506C94.2283 164.651 94.7157 164.75 95.3897 164.802V165.424H90.1631V164.802C90.8371 164.75 91.3194 164.651 91.6097 164.506C91.9105 164.35 92.0608 164.07 92.0608 163.666V155.219H90.8942C90.1371 155.219 89.5927 155.411 89.2608 155.795C88.9394 156.168 88.7112 156.744 88.5764 157.522H87.9542V154.535H97.5986ZM98.2233 154.535H102.112C103.222 154.535 104.186 154.67 105.005 154.939C105.835 155.209 106.525 155.582 107.074 156.059C107.624 156.526 108.034 157.065 108.303 157.677C108.573 158.289 108.708 158.932 108.708 159.606C108.708 160.508 108.547 161.317 108.225 162.033C107.914 162.748 107.479 163.36 106.919 163.868C106.359 164.366 105.716 164.75 104.99 165.019C104.264 165.289 103.497 165.424 102.688 165.424H98.2233V164.802C98.7314 164.781 99.1203 164.688 99.3899 164.522C99.6699 164.356 99.8099 164.07 99.8099 163.666V156.293C99.8099 155.888 99.6699 155.603 99.3899 155.437C99.1203 155.271 98.7314 155.178 98.2233 155.157V154.535ZM101.817 155.25H101.241V163.479C101.241 163.936 101.365 164.257 101.614 164.444C101.863 164.62 102.237 164.708 102.734 164.708C103.543 164.708 104.269 164.527 104.912 164.164C105.565 163.801 106.079 163.262 106.452 162.546C106.836 161.83 107.028 160.944 107.028 159.886C107.028 159.036 106.841 158.263 106.468 157.568C106.094 156.863 105.519 156.303 104.741 155.888C103.974 155.463 102.999 155.25 101.817 155.25ZM111.723 164.444C111.723 164.765 111.614 165.035 111.397 165.253C111.179 165.47 110.909 165.579 110.588 165.579C110.266 165.579 109.997 165.47 109.779 165.253C109.561 165.035 109.452 164.765 109.452 164.444C109.452 164.122 109.561 163.853 109.779 163.635C109.997 163.417 110.266 163.308 110.588 163.308C110.909 163.308 111.179 163.417 111.397 163.635C111.614 163.853 111.723 164.122 111.723 164.444Z" fill="black"/>
<rect x="225.889" y="149.332" width="38.5556" height="21.1852" rx="10.5926" fill="#1D9B2D" fill-opacity="0.08"/>
<path d="M234.03 160.985C234.03 160.715 234.075 160.476 234.165 160.269C234.261 160.055 234.386 159.871 234.538 159.719C234.69 159.567 234.856 159.446 235.036 159.356C235.215 159.26 235.392 159.194 235.565 159.159L235.544 159.346C235.295 159.277 235.07 159.17 234.87 159.025C234.676 158.872 234.524 158.679 234.413 158.444C234.303 158.202 234.247 157.918 234.247 157.593C234.247 157.199 234.337 156.85 234.517 156.546C234.704 156.235 234.984 155.993 235.357 155.82C235.73 155.647 236.194 155.561 236.747 155.561C237.307 155.561 237.767 155.647 238.126 155.82C238.492 155.993 238.766 156.231 238.945 156.536C239.132 156.833 239.225 157.182 239.225 157.583C239.225 157.908 239.167 158.191 239.049 158.433C238.938 158.669 238.786 158.859 238.593 159.004C238.399 159.149 238.174 159.256 237.919 159.325L237.887 159.128C238.136 159.184 238.378 159.287 238.613 159.439C238.855 159.591 239.052 159.795 239.205 160.051C239.357 160.3 239.433 160.608 239.433 160.974C239.433 161.638 239.205 162.16 238.748 162.54C238.299 162.92 237.625 163.11 236.726 163.11C235.827 163.11 235.153 162.92 234.704 162.54C234.254 162.16 234.03 161.641 234.03 160.985ZM235.326 160.912C235.326 161.258 235.437 161.538 235.658 161.752C235.886 161.959 236.249 162.063 236.747 162.063C237.231 162.063 237.583 161.959 237.805 161.752C238.033 161.538 238.147 161.254 238.147 160.902C238.147 160.563 238.043 160.293 237.836 160.093C237.628 159.892 237.262 159.792 236.736 159.792C236.218 159.792 235.851 159.896 235.637 160.103C235.43 160.304 235.326 160.573 235.326 160.912ZM235.461 157.687C235.461 158.046 235.561 158.316 235.762 158.496C235.969 158.669 236.29 158.755 236.726 158.755C237.168 158.755 237.49 158.669 237.69 158.496C237.898 158.316 238.002 158.043 238.002 157.676C238.002 157.372 237.901 157.116 237.701 156.909C237.507 156.702 237.182 156.598 236.726 156.598C236.429 156.598 236.187 156.646 236 156.743C235.813 156.84 235.675 156.971 235.585 157.137C235.502 157.296 235.461 157.479 235.461 157.687ZM244.191 159.574C244.191 159.415 244.191 159.263 244.191 159.118C244.191 158.966 244.191 158.817 244.191 158.672L244.377 159.336C244.239 159.564 244.076 159.754 243.89 159.906C243.71 160.058 243.506 160.172 243.278 160.248C243.05 160.324 242.794 160.362 242.511 160.362C242.02 160.362 241.612 160.262 241.287 160.062C240.969 159.861 240.727 159.585 240.561 159.232C240.402 158.879 240.322 158.478 240.322 158.029C240.322 157.531 240.426 157.099 240.634 156.733C240.848 156.359 241.145 156.072 241.525 155.872C241.906 155.665 242.352 155.561 242.863 155.561C243.354 155.561 243.765 155.654 244.097 155.841C244.429 156.021 244.695 156.273 244.896 156.598C245.096 156.923 245.238 157.296 245.321 157.718C245.411 158.133 245.456 158.575 245.456 159.045C245.456 159.64 245.414 160.186 245.331 160.684C245.248 161.175 245.103 161.603 244.896 161.97C244.695 162.336 244.426 162.62 244.087 162.82C243.748 163.014 243.323 163.11 242.811 163.11C242.12 163.11 241.57 162.951 241.162 162.633C240.761 162.309 240.53 161.828 240.468 161.192H241.722C241.778 161.482 241.892 161.697 242.065 161.835C242.237 161.966 242.486 162.032 242.811 162.032C243.046 162.032 243.247 161.99 243.413 161.908C243.586 161.818 243.731 161.676 243.848 161.482C243.966 161.289 244.052 161.036 244.108 160.725C244.163 160.407 244.191 160.024 244.191 159.574ZM244.097 158.039C244.097 157.79 244.052 157.559 243.962 157.345C243.879 157.123 243.748 156.947 243.568 156.816C243.389 156.684 243.16 156.619 242.884 156.619C242.49 156.619 242.175 156.743 241.94 156.992C241.712 157.234 241.598 157.569 241.598 157.998C241.598 158.254 241.636 158.485 241.712 158.693C241.795 158.9 241.923 159.063 242.096 159.18C242.276 159.298 242.511 159.356 242.801 159.356C243.043 159.356 243.257 159.311 243.444 159.222C243.637 159.125 243.793 158.98 243.911 158.786C244.035 158.586 244.097 158.337 244.097 158.039ZM252.205 155.758H253.428L249.944 162.924H248.71L252.205 155.758ZM251.925 160.839C251.925 160.342 252.004 159.93 252.163 159.605C252.322 159.273 252.54 159.025 252.817 158.859C253.1 158.693 253.425 158.61 253.791 158.61C254.351 158.61 254.801 158.796 255.14 159.17C255.485 159.543 255.658 160.1 255.658 160.839C255.658 161.593 255.489 162.153 255.15 162.519C254.811 162.886 254.358 163.069 253.791 163.069C253.238 163.069 252.789 162.886 252.443 162.519C252.098 162.153 251.925 161.593 251.925 160.839ZM253.024 160.85C253.024 161.299 253.09 161.624 253.221 161.825C253.352 162.025 253.543 162.125 253.791 162.125C254.04 162.125 254.23 162.025 254.362 161.825C254.493 161.624 254.559 161.299 254.559 160.85C254.559 160.4 254.493 160.075 254.362 159.875C254.23 159.668 254.04 159.564 253.791 159.564C253.543 159.564 253.352 159.668 253.221 159.875C253.09 160.075 253.024 160.4 253.024 160.85ZM246.491 157.832C246.491 157.334 246.57 156.923 246.729 156.598C246.888 156.266 247.106 156.017 247.383 155.851C247.666 155.685 247.991 155.602 248.357 155.602C248.917 155.602 249.367 155.789 249.705 156.162C250.051 156.536 250.224 157.092 250.224 157.832C250.224 158.586 250.055 159.146 249.716 159.512C249.377 159.878 248.924 160.062 248.357 160.062C247.804 160.062 247.355 159.878 247.009 159.512C246.664 159.146 246.491 158.586 246.491 157.832ZM247.59 157.842C247.59 158.292 247.656 158.617 247.787 158.817C247.918 159.018 248.108 159.118 248.357 159.118C248.606 159.118 248.796 159.018 248.928 158.817C249.059 158.617 249.125 158.292 249.125 157.842C249.125 157.393 249.059 157.068 248.928 156.868C248.796 156.66 248.606 156.556 248.357 156.556C248.108 156.556 247.918 156.66 247.787 156.868C247.656 157.068 247.59 157.393 247.59 157.842Z" fill="#1D9B2D"/>
<path d="M16.3437 184.484H18.8741C19.4202 184.484 19.8731 184.543 20.2326 184.661C20.5921 184.778 20.8721 184.941 21.0726 185.148C21.28 185.348 21.4252 185.577 21.5081 185.832C21.598 186.088 21.6429 186.351 21.6429 186.621C21.6429 187.146 21.5185 187.588 21.2696 187.948C21.0207 188.307 20.6267 188.577 20.0874 188.757L19.517 188.871C19.4271 188.885 19.3165 188.895 19.1852 188.902C19.0607 188.909 18.9432 188.912 18.8326 188.912H16.8726V187.969H18.9363C19.3442 187.969 19.6622 187.917 19.8904 187.813C20.1185 187.709 20.2775 187.557 20.3674 187.357C20.4573 187.156 20.5022 186.925 20.5022 186.662C20.5022 186.392 20.4504 186.168 20.3467 185.988C20.2499 185.808 20.0805 185.67 19.8385 185.573C19.6034 185.469 19.2647 185.418 18.8222 185.418H16.8726L17.4637 184.588V191.889H16.3437V184.484ZM19.2578 188.736L20.3259 188.466L21.9541 191.889H20.6992L19.2578 188.736ZM22.6689 189.244C22.6689 188.622 22.776 188.097 22.9904 187.668C23.2116 187.232 23.5158 186.904 23.903 186.683C24.2901 186.455 24.736 186.341 25.2407 186.341C25.7938 186.341 26.2467 186.455 26.5993 186.683C26.9588 186.904 27.2249 187.215 27.3978 187.616C27.5706 188.01 27.657 188.466 27.657 188.985V189.462H23.1978V188.726H27.1178L26.5993 189.078C26.5993 188.663 26.5612 188.314 26.4852 188.031C26.4091 187.741 26.2743 187.523 26.0807 187.378C25.8872 187.225 25.6037 187.149 25.2304 187.149C24.8363 187.149 24.5321 187.243 24.3178 187.429C24.1035 187.616 23.9548 187.868 23.8718 188.186C23.7889 188.498 23.7474 188.843 23.7474 189.223C23.7474 189.853 23.8718 190.343 24.1207 190.696C24.3696 191.042 24.743 191.215 25.2407 191.215C25.6556 191.215 25.9598 191.139 26.1533 190.986C26.3469 190.827 26.4783 190.613 26.5474 190.343H27.5741C27.4842 190.876 27.2491 191.294 26.8689 191.598C26.4886 191.902 25.9459 192.055 25.2407 192.055C24.418 192.055 23.782 191.809 23.3326 191.318C22.8901 190.821 22.6689 190.129 22.6689 189.244ZM28.7376 189.223C28.7376 188.643 28.8413 188.138 29.0487 187.709C29.263 187.274 29.5638 186.939 29.9509 186.703C30.3381 186.462 30.8013 186.341 31.3405 186.341C31.9973 186.341 32.5089 186.503 32.8754 186.828C33.2487 187.153 33.4803 187.599 33.5702 188.166L32.502 188.342C32.4398 188.017 32.3223 187.751 32.1494 187.543C31.9766 187.336 31.7 187.232 31.3198 187.232C30.9741 187.232 30.6941 187.319 30.4798 187.492C30.2655 187.664 30.1099 187.9 30.0131 188.197C29.9163 188.487 29.8679 188.819 29.8679 189.192C29.8679 189.566 29.9129 189.904 30.0028 190.209C30.0996 190.506 30.2517 190.741 30.4591 190.914C30.6734 191.08 30.9568 191.163 31.3094 191.163C31.7104 191.163 32.0077 191.062 32.2013 190.862C32.3949 190.655 32.5193 190.375 32.5746 190.022H33.6428C33.5598 190.651 33.3213 191.149 32.9272 191.515C32.54 191.875 31.9939 192.055 31.2887 192.055C30.4591 192.055 29.8265 191.799 29.3909 191.287C28.9554 190.776 28.7376 190.088 28.7376 189.223ZM34.6645 189.244C34.6645 188.622 34.7716 188.097 34.986 187.668C35.2072 187.232 35.5114 186.904 35.8986 186.683C36.2857 186.455 36.7316 186.341 37.2363 186.341C37.7894 186.341 38.2423 186.455 38.5949 186.683C38.9544 186.904 39.2205 187.215 39.3934 187.616C39.5662 188.01 39.6526 188.466 39.6526 188.985V189.462H35.1934V188.726H39.1134L38.5949 189.078C38.5949 188.663 38.5568 188.314 38.4808 188.031C38.4047 187.741 38.2699 187.523 38.0763 187.378C37.8828 187.225 37.5993 187.149 37.226 187.149C36.8319 187.149 36.5277 187.243 36.3134 187.429C36.0991 187.616 35.9504 187.868 35.8675 188.186C35.7845 188.498 35.743 188.843 35.743 189.223C35.743 189.853 35.8675 190.343 36.1163 190.696C36.3652 191.042 36.7386 191.215 37.2363 191.215C37.6512 191.215 37.9554 191.139 38.1489 190.986C38.3425 190.827 38.4739 190.613 38.543 190.343H39.5697C39.4798 190.876 39.2447 191.294 38.8645 191.598C38.4842 191.902 37.9415 192.055 37.2363 192.055C36.4136 192.055 35.7776 191.809 35.3282 191.318C34.8857 190.821 34.6645 190.129 34.6645 189.244ZM40.9095 186.506H41.9776V188.031L41.6873 187.709C41.8877 187.371 42.1021 187.104 42.3302 186.911C42.5584 186.71 42.7934 186.565 43.0354 186.475C43.2843 186.385 43.5401 186.341 43.8028 186.341C44.4043 186.341 44.8537 186.51 45.151 186.849C45.4482 187.187 45.5969 187.671 45.5969 188.301V191.889H44.5184V188.508C44.5184 188.059 44.4319 187.741 44.2591 187.554C44.0932 187.36 43.8443 187.263 43.5124 187.263C43.3258 187.263 43.1391 187.298 42.9524 187.367C42.7658 187.429 42.5998 187.533 42.4547 187.678C42.3579 187.768 42.2749 187.862 42.2058 187.958C42.1366 188.055 42.0813 188.166 42.0398 188.29C42.0053 188.408 41.988 188.549 41.988 188.715V191.889H40.9095V186.506ZM47.3508 190.095V185.055H48.4293V190.281C48.4293 190.53 48.4846 190.731 48.5952 190.883C48.7127 191.035 48.889 191.111 49.1241 191.111C49.2693 191.111 49.3972 191.101 49.5078 191.08C49.6184 191.052 49.7187 191.028 49.8086 191.007L49.9848 191.826C49.8327 191.875 49.6703 191.916 49.4974 191.951C49.3246 191.985 49.1241 192.003 48.896 192.003C48.4811 192.003 48.1597 191.923 47.9315 191.764C47.7103 191.605 47.5582 191.384 47.4752 191.101C47.3923 190.81 47.3508 190.475 47.3508 190.095ZM46.5108 186.506H49.8086V187.367H46.5108V186.506ZM53.3862 184.484H56.041C57.1402 184.484 57.9975 184.788 58.6128 185.397C59.2351 185.998 59.5462 186.911 59.5462 188.135C59.5462 189.372 59.2143 190.309 58.5506 190.945C57.8938 191.574 56.9916 191.889 55.8439 191.889H53.3862V184.484ZM58.3536 188.155C58.3536 187.298 58.1738 186.634 57.8143 186.164C57.4548 185.694 56.8672 185.459 56.0514 185.459H53.9254L54.5269 184.588V191.785L53.9254 190.903H55.8854C56.7427 190.903 57.3684 190.662 57.7625 190.178C58.1565 189.694 58.3536 189.02 58.3536 188.155ZM60.6735 189.244C60.6735 188.622 60.7806 188.097 60.9949 187.668C61.2162 187.232 61.5204 186.904 61.9075 186.683C62.2947 186.455 62.7406 186.341 63.2453 186.341C63.7984 186.341 64.2512 186.455 64.6038 186.683C64.9633 186.904 65.2295 187.215 65.4023 187.616C65.5752 188.01 65.6616 188.466 65.6616 188.985V189.462H61.2023V188.726H65.1223L64.6038 189.078C64.6038 188.663 64.5658 188.314 64.4898 188.031C64.4137 187.741 64.2789 187.523 64.0853 187.378C63.8917 187.225 63.6083 187.149 63.2349 187.149C62.8409 187.149 62.5367 187.243 62.3223 187.429C62.108 187.616 61.9594 187.868 61.8764 188.186C61.7935 188.498 61.752 188.843 61.752 189.223C61.752 189.853 61.8764 190.343 62.1253 190.696C62.3742 191.042 62.7475 191.215 63.2453 191.215C63.6601 191.215 63.9643 191.139 64.1579 190.986C64.3515 190.827 64.4828 190.613 64.552 190.343H65.5786C65.4888 190.876 65.2537 191.294 64.8735 191.598C64.4932 191.902 63.9505 192.055 63.2453 192.055C62.4226 192.055 61.7865 191.809 61.3372 191.318C60.8947 190.821 60.6735 190.129 60.6735 189.244ZM66.5866 190.406C66.5866 190.039 66.6626 189.742 66.8147 189.514C66.9668 189.286 67.1708 189.106 67.4266 188.975C67.6893 188.836 67.9831 188.74 68.3081 188.684C68.6399 188.629 68.9752 188.594 69.314 188.581L70.7451 188.529V189.244L69.3762 189.296C68.9407 189.31 68.595 189.362 68.3392 189.452C68.0903 189.535 67.914 189.652 67.8103 189.804C67.7135 189.949 67.6651 190.136 67.6651 190.364C67.6651 190.613 67.7377 190.814 67.8829 190.966C68.035 191.111 68.2839 191.183 68.6296 191.183C68.9476 191.183 69.2241 191.132 69.4592 191.028C69.6942 190.924 69.8775 190.769 70.0088 190.561C70.1402 190.354 70.2059 190.102 70.2059 189.804V188.342C70.2059 187.92 70.116 187.62 69.9362 187.44C69.7565 187.253 69.4661 187.16 69.0651 187.16C68.6779 187.16 68.391 187.225 68.2044 187.357C68.0177 187.488 67.8967 187.671 67.8414 187.906L66.8562 187.803C66.953 187.305 67.1881 186.939 67.5614 186.703C67.9417 186.462 68.4567 186.341 69.1066 186.341C69.8947 186.341 70.4513 186.524 70.7762 186.89C71.1012 187.25 71.2636 187.761 71.2636 188.425V191.889H70.2266V190.748L70.4029 190.966C70.2024 191.249 69.9431 191.495 69.6251 191.702C69.314 191.909 68.913 192.013 68.4221 192.013C67.876 192.013 67.4335 191.878 67.0947 191.609C66.756 191.339 66.5866 190.938 66.5866 190.406ZM72.6937 184.484H73.7826V191.889H72.6937V184.484ZM75.1961 190.53H76.368V191.889H75.1961V190.53ZM75.1961 186.506H76.368V187.865H75.1961V186.506ZM80.2268 188.912V184.484H81.1809V188.954C81.1809 189.714 81.326 190.288 81.6164 190.675C81.9068 191.056 82.3804 191.246 83.0372 191.246C83.7147 191.246 84.1883 191.056 84.4579 190.675C84.7344 190.288 84.8727 189.714 84.8727 188.954V184.484H85.8268V188.954C85.8268 190.053 85.5779 190.848 85.0801 191.339C84.5893 191.83 83.9048 192.075 83.0268 192.075C82.1349 192.075 81.4436 191.826 80.9527 191.329C80.4688 190.831 80.2268 190.025 80.2268 188.912ZM87.3579 186.527H88.2497V187.989L87.9905 187.72C88.191 187.388 88.4053 187.125 88.6334 186.932C88.8616 186.731 89.1001 186.586 89.349 186.496C89.5979 186.406 89.8571 186.361 90.1268 186.361C90.7352 186.361 91.1845 186.531 91.4749 186.869C91.7722 187.201 91.9208 187.685 91.9208 188.321V191.889H91.0186V188.498C91.0186 188 90.9253 187.651 90.7386 187.45C90.5589 187.243 90.2858 187.139 89.9194 187.139C89.7258 187.139 89.5287 187.174 89.3282 187.243C89.1278 187.312 88.948 187.422 88.789 187.575C88.6784 187.671 88.5816 187.775 88.4986 187.886C88.4226 187.989 88.3638 188.11 88.3223 188.249C88.2808 188.38 88.2601 188.536 88.2601 188.715V191.889H87.3579V186.527ZM93.3967 186.527H94.2989V191.889H93.3967V186.527ZM93.3759 184.484H94.2989V185.532H93.3759V184.484ZM95.6326 189.223C95.6326 188.65 95.7363 188.148 95.9437 187.72C96.1511 187.291 96.445 186.959 96.8252 186.724C97.2124 186.482 97.6721 186.361 98.2045 186.361C98.8405 186.361 99.3383 186.52 99.6978 186.838C100.057 187.149 100.282 187.582 100.372 188.135L99.4697 188.301C99.4005 187.955 99.2726 187.671 99.086 187.45C98.8993 187.222 98.5951 187.108 98.1734 187.108C97.7931 187.108 97.4855 187.201 97.2504 187.388C97.0223 187.575 96.8529 187.827 96.7423 188.145C96.6385 188.456 96.5867 188.809 96.5867 189.203C96.5867 189.59 96.6351 189.946 96.7319 190.271C96.8356 190.589 97.0015 190.841 97.2297 191.028C97.4647 191.215 97.7758 191.308 98.163 191.308C98.5985 191.308 98.92 191.197 99.1274 190.976C99.3418 190.755 99.48 190.454 99.5423 190.074H100.455C100.365 190.682 100.13 191.166 99.7497 191.526C99.3694 191.878 98.8336 192.055 98.1423 192.055C97.3265 192.055 96.7042 191.799 96.2756 191.287C95.8469 190.776 95.6326 190.088 95.6326 189.223ZM101.529 189.223C101.529 188.636 101.636 188.131 101.851 187.709C102.065 187.281 102.369 186.949 102.763 186.714C103.157 186.479 103.617 186.361 104.142 186.361C104.682 186.361 105.141 186.475 105.522 186.703C105.909 186.932 106.206 187.257 106.414 187.678C106.621 188.1 106.725 188.601 106.725 189.182C106.725 189.77 106.618 190.278 106.403 190.706C106.196 191.135 105.895 191.467 105.501 191.702C105.114 191.937 104.651 192.055 104.111 192.055C103.296 192.055 102.66 191.802 102.203 191.298C101.754 190.793 101.529 190.102 101.529 189.223ZM102.483 189.203C102.483 189.818 102.611 190.323 102.867 190.717C103.123 191.111 103.541 191.308 104.122 191.308C104.509 191.308 104.823 191.218 105.065 191.038C105.307 190.859 105.484 190.61 105.594 190.292C105.712 189.967 105.771 189.6 105.771 189.192C105.771 188.577 105.639 188.076 105.377 187.689C105.121 187.302 104.702 187.108 104.122 187.108C103.548 187.108 103.13 187.305 102.867 187.699C102.611 188.086 102.483 188.587 102.483 189.203ZM107.695 190.406C107.695 190.039 107.771 189.742 107.923 189.514C108.082 189.286 108.29 189.106 108.546 188.975C108.808 188.843 109.102 188.75 109.427 188.695C109.759 188.639 110.094 188.605 110.433 188.591L111.812 188.539V189.182L110.495 189.234C110.011 189.248 109.631 189.303 109.354 189.4C109.085 189.49 108.895 189.618 108.784 189.783C108.674 189.942 108.618 190.143 108.618 190.385C108.618 190.655 108.698 190.872 108.857 191.038C109.023 191.197 109.292 191.277 109.666 191.277C110.004 191.277 110.298 191.222 110.547 191.111C110.803 191 111 190.838 111.138 190.623C111.283 190.402 111.356 190.129 111.356 189.804V188.352C111.356 187.896 111.259 187.568 111.066 187.367C110.872 187.167 110.557 187.066 110.122 187.066C109.693 187.066 109.379 187.139 109.178 187.284C108.978 187.422 108.846 187.616 108.784 187.865L107.965 187.772C108.062 187.281 108.293 186.925 108.66 186.703C109.026 186.475 109.524 186.361 110.153 186.361C110.927 186.361 111.47 186.541 111.781 186.901C112.092 187.26 112.248 187.761 112.248 188.404V191.889H111.377V190.758L111.532 190.945C111.346 191.222 111.093 191.47 110.775 191.692C110.457 191.906 110.042 192.013 109.531 192.013C108.992 192.013 108.549 191.882 108.203 191.619C107.865 191.349 107.695 190.945 107.695 190.406ZM116.258 184.484H117.213V191.889H116.258V184.484ZM118.83 186.527H119.722V187.989L119.463 187.72C119.663 187.388 119.878 187.125 120.106 186.932C120.334 186.731 120.573 186.586 120.821 186.496C121.07 186.406 121.33 186.361 121.599 186.361C122.208 186.361 122.657 186.531 122.947 186.869C123.245 187.201 123.393 187.685 123.393 188.321V191.889H122.491V188.498C122.491 188 122.398 187.651 122.211 187.45C122.031 187.243 121.758 187.139 121.392 187.139C121.198 187.139 121.001 187.174 120.801 187.243C120.6 187.312 120.42 187.422 120.261 187.575C120.151 187.671 120.054 187.775 119.971 187.886C119.895 187.989 119.836 188.11 119.795 188.249C119.753 188.38 119.733 188.536 119.733 188.715V191.889H118.83V186.527ZM124.672 189.234C124.672 188.349 124.883 187.651 125.305 187.139C125.733 186.621 126.318 186.361 127.057 186.361C127.382 186.361 127.714 186.441 128.053 186.6C128.392 186.759 128.692 187.066 128.955 187.523L128.727 187.492V184.484H129.629V191.889H128.748V190.841H128.934C128.699 191.222 128.423 191.519 128.105 191.733C127.787 191.947 127.403 192.055 126.954 192.055C126.435 192.055 126.006 191.93 125.668 191.681C125.329 191.432 125.077 191.094 124.911 190.665C124.752 190.236 124.672 189.759 124.672 189.234ZM125.616 189.213C125.616 189.739 125.688 190.153 125.834 190.458C125.979 190.762 126.165 190.98 126.394 191.111C126.622 191.235 126.86 191.298 127.109 191.298C127.6 191.298 127.998 191.139 128.302 190.821C128.606 190.502 128.758 190.032 128.758 189.41V189.047C128.758 188.37 128.609 187.879 128.312 187.575C128.022 187.263 127.645 187.108 127.182 187.108C126.891 187.108 126.625 187.177 126.383 187.315C126.148 187.454 125.961 187.678 125.823 187.989C125.685 188.294 125.616 188.702 125.616 189.213ZM131.099 190.084V186.527H132.001V189.908C132.001 190.406 132.084 190.758 132.25 190.966C132.416 191.173 132.678 191.277 133.038 191.277C133.446 191.277 133.809 191.132 134.127 190.841C134.244 190.738 134.341 190.634 134.417 190.53C134.493 190.426 134.552 190.309 134.593 190.178C134.635 190.039 134.656 189.88 134.656 189.701V186.527H135.558V191.889H134.666V190.281L134.884 190.738C134.607 191.194 134.296 191.529 133.95 191.743C133.612 191.951 133.238 192.055 132.83 192.055C132.222 192.055 131.78 191.889 131.503 191.557C131.233 191.225 131.099 190.734 131.099 190.084ZM140.386 190.478C140.386 190.333 140.362 190.205 140.313 190.095C140.265 189.977 140.171 189.877 140.033 189.794C139.902 189.711 139.701 189.649 139.432 189.607L138.747 189.503C138.146 189.407 137.686 189.248 137.368 189.026C137.05 188.798 136.891 188.435 136.891 187.938C136.891 187.606 136.984 187.322 137.171 187.087C137.358 186.852 137.61 186.672 137.928 186.548C138.253 186.423 138.616 186.361 139.017 186.361C139.535 186.361 139.943 186.427 140.241 186.558C140.538 186.69 140.759 186.866 140.904 187.087C141.049 187.308 141.153 187.554 141.215 187.823L140.396 187.958C140.299 187.668 140.161 187.45 139.981 187.305C139.802 187.153 139.49 187.077 139.048 187.077C138.55 187.077 138.208 187.16 138.021 187.326C137.842 187.492 137.752 187.675 137.752 187.875C137.752 188.097 137.817 188.273 137.949 188.404C138.08 188.529 138.353 188.625 138.768 188.695L139.546 188.819C139.968 188.888 140.306 188.992 140.562 189.13C140.818 189.262 141.005 189.438 141.122 189.659C141.247 189.873 141.309 190.146 141.309 190.478C141.309 190.928 141.129 191.304 140.769 191.609C140.41 191.906 139.871 192.055 139.152 192.055C138.723 192.055 138.332 191.999 137.98 191.889C137.627 191.778 137.34 191.595 137.119 191.339C136.905 191.083 136.784 190.744 136.756 190.323H137.627C137.689 190.696 137.845 190.959 138.094 191.111C138.35 191.256 138.695 191.329 139.131 191.329C139.587 191.329 139.909 191.253 140.095 191.101C140.289 190.942 140.386 190.734 140.386 190.478ZM142.879 190.146V185.065H143.782V190.385C143.782 190.648 143.84 190.859 143.958 191.018C144.076 191.177 144.255 191.256 144.497 191.256C144.649 191.256 144.784 191.246 144.902 191.225C145.019 191.197 145.123 191.17 145.213 191.142L145.368 191.837C145.23 191.885 145.078 191.923 144.912 191.951C144.753 191.985 144.563 192.003 144.342 192.003C143.941 192.003 143.633 191.923 143.419 191.764C143.211 191.605 143.07 191.387 142.994 191.111C142.917 190.827 142.879 190.506 142.879 190.146ZM142.05 186.527H145.202V187.243H142.05V186.527ZM146.215 190.675H147.252V191.889H146.215V190.675ZM148.638 190.675H149.675V191.889H148.638V190.675ZM151.061 190.675H152.098V191.889H151.061V190.675ZM155.803 188.726C155.803 187.91 155.907 187.115 156.114 186.341C156.322 185.559 156.619 184.871 157.006 184.277H157.867C157.466 184.989 157.183 185.711 157.017 186.444C156.851 187.177 156.768 187.938 156.768 188.726C156.768 189.514 156.851 190.274 157.017 191.007C157.183 191.74 157.466 192.462 157.867 193.175H157.006C156.619 192.58 156.322 191.896 156.114 191.121C155.907 190.34 155.803 189.542 155.803 188.726ZM158.756 191.142C158.956 190.969 159.153 190.796 159.347 190.623C159.547 190.451 159.744 190.278 159.938 190.105C160.138 189.932 160.336 189.759 160.529 189.586C160.861 189.296 161.151 189.033 161.4 188.798C161.649 188.556 161.857 188.325 162.022 188.103C162.188 187.882 162.313 187.658 162.396 187.429C162.479 187.201 162.52 186.956 162.52 186.693C162.52 186.258 162.403 185.926 162.168 185.698C161.933 185.462 161.604 185.345 161.182 185.345C160.844 185.345 160.567 185.393 160.353 185.49C160.145 185.587 159.979 185.732 159.855 185.926C159.737 186.112 159.637 186.347 159.554 186.631L158.694 186.496C158.777 186.164 158.904 185.85 159.077 185.552C159.257 185.248 159.516 185.003 159.855 184.816C160.194 184.622 160.643 184.526 161.203 184.526C161.936 184.526 162.496 184.723 162.883 185.117C163.277 185.504 163.474 186.005 163.474 186.621C163.474 186.932 163.429 187.222 163.339 187.492C163.257 187.761 163.125 188.027 162.945 188.29C162.766 188.546 162.537 188.816 162.261 189.099C161.984 189.376 161.656 189.676 161.276 190.001C161.041 190.202 160.781 190.423 160.498 190.665C160.215 190.907 159.879 191.19 159.492 191.515V191.059H163.547L163.412 191.889H158.756V191.142ZM164.758 188.311C164.758 187.011 164.997 186.057 165.474 185.449C165.958 184.833 166.604 184.526 167.413 184.526C168.236 184.526 168.875 184.833 169.331 185.449C169.795 186.057 170.026 187.011 170.026 188.311C170.026 189.604 169.791 190.554 169.321 191.163C168.858 191.771 168.208 192.075 167.371 192.075C166.549 192.075 165.906 191.771 165.443 191.163C164.986 190.554 164.758 189.604 164.758 188.311ZM165.723 188.311C165.723 188.926 165.774 189.455 165.878 189.898C165.989 190.34 166.165 190.679 166.407 190.914C166.649 191.149 166.977 191.266 167.392 191.266C167.807 191.266 168.135 191.149 168.377 190.914C168.619 190.679 168.792 190.34 168.896 189.898C169.007 189.455 169.062 188.926 169.062 188.311C169.062 187.696 169.007 187.167 168.896 186.724C168.792 186.282 168.619 185.943 168.377 185.708C168.135 185.466 167.807 185.345 167.392 185.345C166.977 185.345 166.649 185.466 166.407 185.708C166.165 185.943 165.989 186.282 165.878 186.724C165.774 187.167 165.723 187.696 165.723 188.311ZM171.237 191.142C171.438 190.969 171.635 190.796 171.829 190.623C172.029 190.451 172.226 190.278 172.42 190.105C172.62 189.932 172.817 189.759 173.011 189.586C173.343 189.296 173.633 189.033 173.882 188.798C174.131 188.556 174.338 188.325 174.504 188.103C174.67 187.882 174.795 187.658 174.877 187.429C174.96 187.201 175.002 186.956 175.002 186.693C175.002 186.258 174.884 185.926 174.649 185.698C174.414 185.462 174.086 185.345 173.664 185.345C173.325 185.345 173.049 185.393 172.835 185.49C172.627 185.587 172.461 185.732 172.337 185.926C172.219 186.112 172.119 186.347 172.036 186.631L171.175 186.496C171.258 186.164 171.386 185.85 171.559 185.552C171.739 185.248 171.998 185.003 172.337 184.816C172.675 184.622 173.125 184.526 173.685 184.526C174.418 184.526 174.978 184.723 175.365 185.117C175.759 185.504 175.956 186.005 175.956 186.621C175.956 186.932 175.911 187.222 175.821 187.492C175.738 187.761 175.607 188.027 175.427 188.29C175.247 188.546 175.019 188.816 174.743 189.099C174.466 189.376 174.138 189.676 173.757 190.001C173.522 190.202 173.263 190.423 172.98 190.665C172.696 190.907 172.361 191.19 171.974 191.515V191.059H176.029L175.894 191.889H171.237V191.142ZM177.478 191.142C177.679 190.969 177.876 190.796 178.069 190.623C178.27 190.451 178.467 190.278 178.661 190.105C178.861 189.932 179.058 189.759 179.252 189.586C179.584 189.296 179.874 189.033 180.123 188.798C180.372 188.556 180.579 188.325 180.745 188.103C180.911 187.882 181.035 187.658 181.118 187.429C181.201 187.201 181.243 186.956 181.243 186.693C181.243 186.258 181.125 185.926 180.89 185.698C180.655 185.462 180.327 185.345 179.905 185.345C179.566 185.345 179.29 185.393 179.075 185.49C178.868 185.587 178.702 185.732 178.578 185.926C178.46 186.112 178.36 186.347 178.277 186.631L177.416 186.496C177.499 186.164 177.627 185.85 177.8 185.552C177.98 185.248 178.239 185.003 178.578 184.816C178.916 184.622 179.366 184.526 179.926 184.526C180.659 184.526 181.219 184.723 181.606 185.117C182 185.504 182.197 186.005 182.197 186.621C182.197 186.932 182.152 187.222 182.062 187.492C181.979 187.761 181.848 188.027 181.668 188.29C181.488 188.546 181.26 188.816 180.984 189.099C180.707 189.376 180.379 189.676 179.998 190.001C179.763 190.202 179.504 190.423 179.221 190.665C178.937 190.907 178.602 191.19 178.215 191.515V191.059H182.269L182.135 191.889H177.478V191.142ZM184.258 188.726C184.258 187.938 184.175 187.177 184.01 186.444C183.844 185.711 183.56 184.989 183.159 184.277H184.02C184.407 184.871 184.704 185.559 184.912 186.341C185.119 187.115 185.223 187.91 185.223 188.726C185.223 189.542 185.119 190.34 184.912 191.121C184.704 191.896 184.407 192.58 184.02 193.175H183.159C183.56 192.462 183.844 191.74 184.01 191.007C184.175 190.274 184.258 189.514 184.258 188.726Z" fill="#171514"/>
<path d="M196.27 184.484H197.421V191.785L196.798 190.872H201.154L201.009 191.889H196.27V184.484ZM201.977 189.244C201.977 188.622 202.084 188.097 202.299 187.668C202.52 187.232 202.824 186.904 203.211 186.683C203.598 186.455 204.044 186.341 204.549 186.341C205.102 186.341 205.555 186.455 205.907 186.683C206.267 186.904 206.533 187.215 206.706 187.616C206.879 188.01 206.965 188.466 206.965 188.985V189.462H202.506V188.726H206.426L205.907 189.078C205.907 188.663 205.869 188.314 205.793 188.031C205.717 187.741 205.582 187.523 205.389 187.378C205.195 187.225 204.912 187.149 204.539 187.149C204.144 187.149 203.84 187.243 203.626 187.429C203.412 187.616 203.263 187.868 203.18 188.186C203.097 188.498 203.056 188.843 203.056 189.223C203.056 189.853 203.18 190.343 203.429 190.696C203.678 191.042 204.051 191.215 204.549 191.215C204.964 191.215 205.268 191.139 205.461 190.986C205.655 190.827 205.786 190.613 205.856 190.343H206.882C206.792 190.876 206.557 191.294 206.177 191.598C205.797 191.902 205.254 192.055 204.549 192.055C203.726 192.055 203.09 191.809 202.641 191.318C202.198 190.821 201.977 190.129 201.977 189.244ZM207.89 190.406C207.89 190.039 207.966 189.742 208.118 189.514C208.27 189.286 208.474 189.106 208.73 188.975C208.993 188.836 209.287 188.74 209.612 188.684C209.943 188.629 210.279 188.594 210.618 188.581L212.049 188.529V189.244L210.68 189.296C210.244 189.31 209.899 189.362 209.643 189.452C209.394 189.535 209.218 189.652 209.114 189.804C209.017 189.949 208.969 190.136 208.969 190.364C208.969 190.613 209.041 190.814 209.186 190.966C209.339 191.111 209.587 191.183 209.933 191.183C210.251 191.183 210.528 191.132 210.763 191.028C210.998 190.924 211.181 190.769 211.312 190.561C211.444 190.354 211.509 190.102 211.509 189.804V188.342C211.509 187.92 211.42 187.62 211.24 187.44C211.06 187.253 210.77 187.16 210.369 187.16C209.982 187.16 209.695 187.225 209.508 187.357C209.321 187.488 209.2 187.671 209.145 187.906L208.16 187.803C208.257 187.305 208.492 186.939 208.865 186.703C209.245 186.462 209.76 186.341 210.41 186.341C211.198 186.341 211.755 186.524 212.08 186.89C212.405 187.25 212.567 187.761 212.567 188.425V191.889H211.53V190.748L211.706 190.966C211.506 191.249 211.247 191.495 210.929 191.702C210.618 191.909 210.217 192.013 209.726 192.013C209.18 192.013 208.737 191.878 208.398 191.609C208.06 191.339 207.89 190.938 207.89 190.406ZM213.987 186.506H215.055V188.352L214.868 187.616C215.069 187.229 215.318 186.932 215.615 186.724C215.912 186.517 216.244 186.413 216.611 186.413C216.811 186.413 216.974 186.43 217.098 186.465L216.963 187.44C216.887 187.426 216.811 187.416 216.735 187.409C216.666 187.395 216.59 187.388 216.507 187.388C216.341 187.388 216.175 187.416 216.009 187.471C215.843 187.526 215.684 187.616 215.532 187.741C215.387 187.865 215.273 188.014 215.19 188.186C215.107 188.352 215.065 188.546 215.065 188.767V191.889H213.987V186.506ZM218.01 186.506H219.078V188.031L218.788 187.709C218.988 187.371 219.202 187.104 219.431 186.911C219.659 186.71 219.894 186.565 220.136 186.475C220.385 186.385 220.64 186.341 220.903 186.341C221.505 186.341 221.954 186.51 222.251 186.849C222.549 187.187 222.697 187.671 222.697 188.301V191.889H221.619V188.508C221.619 188.059 221.532 187.741 221.359 187.554C221.194 187.36 220.945 187.263 220.613 187.263C220.426 187.263 220.239 187.298 220.053 187.367C219.866 187.429 219.7 187.533 219.555 187.678C219.458 187.768 219.375 187.862 219.306 187.958C219.237 188.055 219.182 188.166 219.14 188.29C219.106 188.408 219.088 188.549 219.088 188.715V191.889H218.01V186.506ZM226.615 184.484H228.015L230.484 191.142H230.027L232.537 184.484H233.895V191.889H232.827V184.588L233.47 184.619L230.681 191.889H229.778L227.02 184.609L227.663 184.588V191.889H226.615V184.484ZM235.28 189.213C235.28 188.625 235.387 188.117 235.602 187.689C235.816 187.26 236.124 186.928 236.525 186.693C236.926 186.458 237.396 186.341 237.935 186.341C238.481 186.341 238.948 186.455 239.335 186.683C239.729 186.911 240.03 187.236 240.237 187.658C240.451 188.079 240.559 188.584 240.559 189.172C240.559 189.766 240.451 190.278 240.237 190.706C240.023 191.135 239.715 191.467 239.314 191.702C238.92 191.937 238.45 192.055 237.904 192.055C237.074 192.055 236.428 191.802 235.965 191.298C235.508 190.793 235.28 190.098 235.28 189.213ZM236.41 189.192C236.41 189.78 236.528 190.257 236.763 190.623C236.998 190.983 237.382 191.163 237.914 191.163C238.267 191.163 238.554 191.08 238.775 190.914C238.996 190.748 239.159 190.516 239.262 190.219C239.373 189.915 239.428 189.569 239.428 189.182C239.428 188.601 239.307 188.131 239.065 187.772C238.83 187.412 238.447 187.232 237.914 187.232C237.389 187.232 237.005 187.416 236.763 187.782C236.528 188.142 236.41 188.612 236.41 189.192ZM241.839 186.506H242.907V188.352L242.721 187.616C242.921 187.229 243.17 186.932 243.467 186.724C243.764 186.517 244.096 186.413 244.463 186.413C244.663 186.413 244.826 186.43 244.95 186.465L244.815 187.44C244.739 187.426 244.663 187.416 244.587 187.409C244.518 187.395 244.442 187.388 244.359 187.388C244.193 187.388 244.027 187.416 243.861 187.471C243.695 187.526 243.536 187.616 243.384 187.741C243.239 187.865 243.125 188.014 243.042 188.186C242.959 188.352 242.918 188.546 242.918 188.767V191.889H241.839V186.506ZM245.503 189.244C245.503 188.622 245.611 188.097 245.825 187.668C246.046 187.232 246.35 186.904 246.737 186.683C247.125 186.455 247.571 186.341 248.075 186.341C248.628 186.341 249.081 186.455 249.434 186.683C249.793 186.904 250.059 187.215 250.232 187.616C250.405 188.01 250.492 188.466 250.492 188.985V189.462H246.032V188.726H249.952L249.434 189.078C249.434 188.663 249.396 188.314 249.32 188.031C249.244 187.741 249.109 187.523 248.915 187.378C248.722 187.225 248.438 187.149 248.065 187.149C247.671 187.149 247.367 187.243 247.152 187.429C246.938 187.616 246.789 187.868 246.706 188.186C246.623 188.498 246.582 188.843 246.582 189.223C246.582 189.853 246.706 190.343 246.955 190.696C247.204 191.042 247.577 191.215 248.075 191.215C248.49 191.215 248.794 191.139 248.988 190.986C249.181 190.827 249.313 190.613 249.382 190.343H250.409C250.319 190.876 250.084 191.294 249.703 191.598C249.323 191.902 248.78 192.055 248.075 192.055C247.253 192.055 246.616 191.809 246.167 191.318C245.725 190.821 245.503 190.129 245.503 189.244Z" fill="#333333"/>
<path d="M256.181 186.457H261.042M261.042 186.457V191.318M261.042 186.457L256.181 191.318" stroke="#333333" stroke-width="0.972222" stroke-linecap="round" stroke-linejoin="round"/>
</svg>
