<svg width="282" height="224" viewBox="0 0 282 224" fill="none" xmlns="http://www.w3.org/2000/svg">
<rect y="26" width="115" height="24" rx="12" fill="#E3DED8"/>
<path d="M17.532 38.712L15.648 33.552H16.548L14.676 38.712L14.376 39.66L13.512 42H12.144L15.408 33.432H16.872L20.124 42H18.708L17.844 39.66L17.532 38.712ZM13.836 38.628H18.384V39.756H13.836V38.628ZM21.1734 35.772H22.4094V37.536L22.0734 37.164C22.3054 36.772 22.5534 36.464 22.8174 36.24C23.0814 36.008 23.3534 35.84 23.6334 35.736C23.9214 35.632 24.2174 35.58 24.5214 35.58C25.2174 35.58 25.7374 35.776 26.0814 36.168C26.4254 36.56 26.5974 37.12 26.5974 37.848V42H25.3494V38.088C25.3494 37.568 25.2494 37.2 25.0494 36.984C24.8574 36.76 24.5694 36.648 24.1854 36.648C23.9694 36.648 23.7534 36.688 23.5374 36.768C23.3214 36.84 23.1294 36.96 22.9614 37.128C22.8494 37.232 22.7534 37.34 22.6734 37.452C22.5934 37.564 22.5294 37.692 22.4814 37.836C22.4414 37.972 22.4214 38.136 22.4214 38.328V42H21.1734V35.772ZM28.2309 35.772H29.4669V37.536L29.1309 37.164C29.3629 36.772 29.6109 36.464 29.8749 36.24C30.1389 36.008 30.4109 35.84 30.6909 35.736C30.9789 35.632 31.2749 35.58 31.5789 35.58C32.2749 35.58 32.7949 35.776 33.1389 36.168C33.4829 36.56 33.6549 37.12 33.6549 37.848V42H32.4069V38.088C32.4069 37.568 32.3069 37.2 32.1069 36.984C31.9149 36.76 31.6269 36.648 31.2429 36.648C31.0269 36.648 30.8109 36.688 30.5949 36.768C30.3789 36.84 30.1869 36.96 30.0189 37.128C29.9069 37.232 29.8109 37.34 29.7309 37.452C29.6509 37.564 29.5869 37.692 29.5389 37.836C29.4989 37.972 29.4789 38.136 29.4789 38.328V42H28.2309V35.772ZM35.2404 39.912V35.772H36.5004V39.684C36.5004 40.204 36.5884 40.576 36.7644 40.8C36.9404 41.016 37.2204 41.124 37.6044 41.124C38.0444 41.124 38.4324 40.968 38.7684 40.656C38.8884 40.544 38.9844 40.436 39.0564 40.332C39.1364 40.22 39.1964 40.092 39.2364 39.948C39.2844 39.804 39.3084 39.64 39.3084 39.456V35.772H40.5684V42H39.3324V40.092L39.5844 40.716C39.2724 41.228 38.9204 41.604 38.5284 41.844C38.1444 42.076 37.7204 42.192 37.2564 42.192C36.5604 42.192 36.0484 42 35.7204 41.616C35.4004 41.224 35.2404 40.656 35.2404 39.912ZM41.8565 40.284C41.8565 39.86 41.9445 39.516 42.1205 39.252C42.2965 38.988 42.5325 38.78 42.8285 38.628C43.1325 38.468 43.4725 38.356 43.8485 38.292C44.2325 38.228 44.6205 38.188 45.0125 38.172L46.6685 38.112V38.94L45.0845 39C44.5805 39.016 44.1805 39.076 43.8845 39.18C43.5965 39.276 43.3925 39.412 43.2725 39.588C43.1605 39.756 43.1045 39.972 43.1045 40.236C43.1045 40.524 43.1885 40.756 43.3565 40.932C43.5325 41.1 43.8205 41.184 44.2205 41.184C44.5885 41.184 44.9085 41.124 45.1805 41.004C45.4525 40.884 45.6645 40.704 45.8165 40.464C45.9685 40.224 46.0445 39.932 46.0445 39.588V37.896C46.0445 37.408 45.9405 37.06 45.7325 36.852C45.5245 36.636 45.1885 36.528 44.7245 36.528C44.2765 36.528 43.9445 36.604 43.7285 36.756C43.5125 36.908 43.3725 37.12 43.3085 37.392L42.1685 37.272C42.2805 36.696 42.5525 36.272 42.9845 36C43.4245 35.72 44.0205 35.58 44.7725 35.58C45.6845 35.58 46.3285 35.792 46.7045 36.216C47.0805 36.632 47.2685 37.224 47.2685 37.992V42H46.0685V40.68L46.2725 40.932C46.0405 41.26 45.7405 41.544 45.3725 41.784C45.0125 42.024 44.5485 42.144 43.9805 42.144C43.3485 42.144 42.8365 41.988 42.4445 41.676C42.0525 41.364 41.8565 40.9 41.8565 40.284ZM48.9232 33.432H50.1832V42H48.9232V33.432ZM54.7793 33.432H57.7073C58.3393 33.432 58.8633 33.5 59.2793 33.636C59.6953 33.772 60.0193 33.96 60.2513 34.2C60.4913 34.432 60.6593 34.696 60.7553 34.992C60.8593 35.288 60.9113 35.592 60.9113 35.904C60.9113 36.512 60.7673 37.024 60.4793 37.44C60.1913 37.856 59.7353 38.168 59.1113 38.376L58.4513 38.508C58.3473 38.524 58.2193 38.536 58.0673 38.544C57.9233 38.552 57.7873 38.556 57.6593 38.556H55.3913V37.464H57.7793C58.2513 37.464 58.6193 37.404 58.8833 37.284C59.1473 37.164 59.3313 36.988 59.4353 36.756C59.5393 36.524 59.5913 36.256 59.5913 35.952C59.5913 35.64 59.5313 35.38 59.4113 35.172C59.2993 34.964 59.1033 34.804 58.8233 34.692C58.5513 34.572 58.1593 34.512 57.6473 34.512H55.3913L56.0753 33.552V42H54.7793V33.432ZM58.1513 38.352L59.3873 38.04L61.2713 42H59.8193L58.1513 38.352ZM62.0985 38.94C62.0985 38.22 62.2225 37.612 62.4705 37.116C62.7265 36.612 63.0785 36.232 63.5265 35.976C63.9745 35.712 64.4905 35.58 65.0745 35.58C65.7145 35.58 66.2385 35.712 66.6465 35.976C67.0625 36.232 67.3705 36.592 67.5705 37.056C67.7705 37.512 67.8705 38.04 67.8705 38.64V39.192H62.7105V38.34H67.2465L66.6465 38.748C66.6465 38.268 66.6025 37.864 66.5145 37.536C66.4265 37.2 66.2705 36.948 66.0465 36.78C65.8225 36.604 65.4945 36.516 65.0625 36.516C64.6065 36.516 64.2545 36.624 64.0065 36.84C63.7585 37.056 63.5865 37.348 63.4905 37.716C63.3945 38.076 63.3465 38.476 63.3465 38.916C63.3465 39.644 63.4905 40.212 63.7785 40.62C64.0665 41.02 64.4985 41.22 65.0745 41.22C65.5545 41.22 65.9065 41.132 66.1305 40.956C66.3545 40.772 66.5065 40.524 66.5865 40.212H67.7745C67.6705 40.828 67.3985 41.312 66.9585 41.664C66.5185 42.016 65.8905 42.192 65.0745 42.192C64.1225 42.192 63.3865 41.908 62.8665 41.34C62.3545 40.764 62.0985 39.964 62.0985 38.94ZM71.8253 41.412H71.3093L73.3133 35.772H74.6693L72.2213 42H70.8773L68.4413 35.772H69.8573L71.8253 41.412ZM75.2643 38.94C75.2643 38.22 75.3883 37.612 75.6363 37.116C75.8923 36.612 76.2443 36.232 76.6923 35.976C77.1403 35.712 77.6563 35.58 78.2403 35.58C78.8803 35.58 79.4043 35.712 79.8123 35.976C80.2283 36.232 80.5363 36.592 80.7363 37.056C80.9363 37.512 81.0363 38.04 81.0363 38.64V39.192H75.8763V38.34H80.4123L79.8123 38.748C79.8123 38.268 79.7683 37.864 79.6803 37.536C79.5923 37.2 79.4363 36.948 79.2123 36.78C78.9883 36.604 78.6603 36.516 78.2283 36.516C77.7723 36.516 77.4203 36.624 77.1723 36.84C76.9243 37.056 76.7523 37.348 76.6563 37.716C76.5603 38.076 76.5123 38.476 76.5123 38.916C76.5123 39.644 76.6563 40.212 76.9443 40.62C77.2323 41.02 77.6643 41.22 78.2403 41.22C78.7203 41.22 79.0723 41.132 79.2963 40.956C79.5203 40.772 79.6723 40.524 79.7523 40.212H80.9403C80.8363 40.828 80.5643 41.312 80.1243 41.664C79.6843 42.016 79.0563 42.192 78.2403 42.192C77.2883 42.192 76.5523 41.908 76.0323 41.34C75.5203 40.764 75.2643 39.964 75.2643 38.94ZM82.4906 35.772H83.7266V37.536L83.3906 37.164C83.6226 36.772 83.8706 36.464 84.1346 36.24C84.3986 36.008 84.6706 35.84 84.9506 35.736C85.2386 35.632 85.5346 35.58 85.8386 35.58C86.5346 35.58 87.0546 35.776 87.3986 36.168C87.7426 36.56 87.9146 37.12 87.9146 37.848V42H86.6666V38.088C86.6666 37.568 86.5666 37.2 86.3666 36.984C86.1746 36.76 85.8866 36.648 85.5026 36.648C85.2866 36.648 85.0706 36.688 84.8546 36.768C84.6386 36.84 84.4466 36.96 84.2786 37.128C84.1666 37.232 84.0706 37.34 83.9906 37.452C83.9106 37.564 83.8466 37.692 83.7986 37.836C83.7586 37.972 83.7386 38.136 83.7386 38.328V42H82.4906V35.772ZM89.5001 39.912V35.772H90.7601V39.684C90.7601 40.204 90.8481 40.576 91.0241 40.8C91.2001 41.016 91.4801 41.124 91.8641 41.124C92.3041 41.124 92.6921 40.968 93.0281 40.656C93.1481 40.544 93.2441 40.436 93.3161 40.332C93.3961 40.22 93.4561 40.092 93.4961 39.948C93.5441 39.804 93.5681 39.64 93.5681 39.456V35.772H94.8281V42H93.5921V40.092L93.8441 40.716C93.5321 41.228 93.1801 41.604 92.7881 41.844C92.4041 42.076 91.9801 42.192 91.5161 42.192C90.8201 42.192 90.3081 42 89.9801 41.616C89.6601 41.224 89.5001 40.656 89.5001 39.912ZM96.2962 38.94C96.2962 38.22 96.4202 37.612 96.6682 37.116C96.9242 36.612 97.2762 36.232 97.7242 35.976C98.1722 35.712 98.6882 35.58 99.2722 35.58C99.9122 35.58 100.436 35.712 100.844 35.976C101.26 36.232 101.568 36.592 101.768 37.056C101.968 37.512 102.068 38.04 102.068 38.64V39.192H96.9082V38.34H101.444L100.844 38.748C100.844 38.268 100.8 37.864 100.712 37.536C100.624 37.2 100.468 36.948 100.244 36.78C100.02 36.604 99.6922 36.516 99.2602 36.516C98.8042 36.516 98.4522 36.624 98.2042 36.84C97.9562 37.056 97.7842 37.348 97.6882 37.716C97.5922 38.076 97.5442 38.476 97.5442 38.916C97.5442 39.644 97.6882 40.212 97.9762 40.62C98.2642 41.02 98.6962 41.22 99.2722 41.22C99.7522 41.22 100.104 41.132 100.328 40.956C100.552 40.772 100.704 40.524 100.784 40.212H101.972C101.868 40.828 101.596 41.312 101.156 41.664C100.716 42.016 100.088 42.192 99.2722 42.192C98.3202 42.192 97.5842 41.908 97.0642 41.34C96.5522 40.764 96.2962 39.964 96.2962 38.94Z" fill="black"/>
<g clip-path="url(#clip0_38_158337)">
<rect y="71" width="282" height="12" rx="6" fill="#E5E0DC"/>
<rect x="-0.159912" y="70.7656" width="188" height="12" rx="6" fill="#036AA2"/>
</g>
<g filter="url(#filter0_d_38_158337)">
<rect x="177.84" y="65" width="24" height="24" rx="12" fill="white"/>
<rect x="178.34" y="65.5" width="23" height="23" rx="11.5" stroke="#EFEBE7"/>
</g>
<rect y="132" width="97" height="24" rx="12" fill="#E3DED8"/>
<path d="M17.532 144.712L15.648 139.552H16.548L14.676 144.712L14.376 145.66L13.512 148H12.144L15.408 139.432H16.872L20.124 148H18.708L17.844 145.66L17.532 144.712ZM13.836 144.628H18.384V145.756H13.836V144.628ZM21.1734 141.772H22.4094V143.536L22.0734 143.164C22.3054 142.772 22.5534 142.464 22.8174 142.24C23.0814 142.008 23.3534 141.84 23.6334 141.736C23.9214 141.632 24.2174 141.58 24.5214 141.58C25.2174 141.58 25.7374 141.776 26.0814 142.168C26.4254 142.56 26.5974 143.12 26.5974 143.848V148H25.3494V144.088C25.3494 143.568 25.2494 143.2 25.0494 142.984C24.8574 142.76 24.5694 142.648 24.1854 142.648C23.9694 142.648 23.7534 142.688 23.5374 142.768C23.3214 142.84 23.1294 142.96 22.9614 143.128C22.8494 143.232 22.7534 143.34 22.6734 143.452C22.5934 143.564 22.5294 143.692 22.4814 143.836C22.4414 143.972 22.4214 144.136 22.4214 144.328V148H21.1734V141.772ZM28.2309 141.772H29.4669V143.536L29.1309 143.164C29.3629 142.772 29.6109 142.464 29.8749 142.24C30.1389 142.008 30.4109 141.84 30.6909 141.736C30.9789 141.632 31.2749 141.58 31.5789 141.58C32.2749 141.58 32.7949 141.776 33.1389 142.168C33.4829 142.56 33.6549 143.12 33.6549 143.848V148H32.4069V144.088C32.4069 143.568 32.3069 143.2 32.1069 142.984C31.9149 142.76 31.6269 142.648 31.2429 142.648C31.0269 142.648 30.8109 142.688 30.5949 142.768C30.3789 142.84 30.1869 142.96 30.0189 143.128C29.9069 143.232 29.8109 143.34 29.7309 143.452C29.6509 143.564 29.5869 143.692 29.5389 143.836C29.4989 143.972 29.4789 144.136 29.4789 144.328V148H28.2309V141.772ZM35.2404 145.912V141.772H36.5004V145.684C36.5004 146.204 36.5884 146.576 36.7644 146.8C36.9404 147.016 37.2204 147.124 37.6044 147.124C38.0444 147.124 38.4324 146.968 38.7684 146.656C38.8884 146.544 38.9844 146.436 39.0564 146.332C39.1364 146.22 39.1964 146.092 39.2364 145.948C39.2844 145.804 39.3084 145.64 39.3084 145.456V141.772H40.5684V148H39.3324V146.092L39.5844 146.716C39.2724 147.228 38.9204 147.604 38.5284 147.844C38.1444 148.076 37.7204 148.192 37.2564 148.192C36.5604 148.192 36.0484 148 35.7204 147.616C35.4004 147.224 35.2404 146.656 35.2404 145.912ZM41.8565 146.284C41.8565 145.86 41.9445 145.516 42.1205 145.252C42.2965 144.988 42.5325 144.78 42.8285 144.628C43.1325 144.468 43.4725 144.356 43.8485 144.292C44.2325 144.228 44.6205 144.188 45.0125 144.172L46.6685 144.112V144.94L45.0845 145C44.5805 145.016 44.1805 145.076 43.8845 145.18C43.5965 145.276 43.3925 145.412 43.2725 145.588C43.1605 145.756 43.1045 145.972 43.1045 146.236C43.1045 146.524 43.1885 146.756 43.3565 146.932C43.5325 147.1 43.8205 147.184 44.2205 147.184C44.5885 147.184 44.9085 147.124 45.1805 147.004C45.4525 146.884 45.6645 146.704 45.8165 146.464C45.9685 146.224 46.0445 145.932 46.0445 145.588V143.896C46.0445 143.408 45.9405 143.06 45.7325 142.852C45.5245 142.636 45.1885 142.528 44.7245 142.528C44.2765 142.528 43.9445 142.604 43.7285 142.756C43.5125 142.908 43.3725 143.12 43.3085 143.392L42.1685 143.272C42.2805 142.696 42.5525 142.272 42.9845 142C43.4245 141.72 44.0205 141.58 44.7725 141.58C45.6845 141.58 46.3285 141.792 46.7045 142.216C47.0805 142.632 47.2685 143.224 47.2685 143.992V148H46.0685V146.68L46.2725 146.932C46.0405 147.26 45.7405 147.544 45.3725 147.784C45.0125 148.024 44.5485 148.144 43.9805 148.144C43.3485 148.144 42.8365 147.988 42.4445 147.676C42.0525 147.364 41.8565 146.9 41.8565 146.284ZM48.9232 139.432H50.1832V148H48.9232V139.432ZM54.7793 139.432H57.7193C58.3513 139.432 58.8713 139.5 59.2793 139.636C59.6953 139.772 60.0233 139.96 60.2633 140.2C60.5113 140.432 60.6833 140.704 60.7793 141.016C60.8833 141.328 60.9353 141.668 60.9353 142.036C60.9353 142.42 60.8833 142.78 60.7793 143.116C60.6753 143.444 60.4993 143.732 60.2513 143.98C60.0113 144.228 59.6833 144.424 59.2673 144.568C58.8513 144.712 58.3353 144.784 57.7193 144.784H55.3913V143.68H57.7073C58.2273 143.68 58.6273 143.616 58.9073 143.488C59.1873 143.36 59.3793 143.176 59.4833 142.936C59.5873 142.688 59.6393 142.4 59.6393 142.072C59.6393 141.72 59.5833 141.432 59.4713 141.208C59.3593 140.984 59.1593 140.816 58.8713 140.704C58.5913 140.592 58.1993 140.536 57.6953 140.536H55.3913L56.0873 139.552V148H54.7793V139.432ZM62.3494 141.772H63.5854V143.908L63.3694 143.056C63.6014 142.608 63.8894 142.264 64.2334 142.024C64.5774 141.784 64.9614 141.664 65.3854 141.664C65.6174 141.664 65.8054 141.684 65.9494 141.724L65.7934 142.852C65.7054 142.836 65.6174 142.824 65.5294 142.816C65.4494 142.8 65.3614 142.792 65.2654 142.792C65.0734 142.792 64.8814 142.824 64.6894 142.888C64.4974 142.952 64.3134 143.056 64.1374 143.2C63.9694 143.344 63.8374 143.516 63.7414 143.716C63.6454 143.908 63.5974 144.132 63.5974 144.388V148H62.3494V141.772ZM66.5896 144.904C66.5896 144.224 66.7136 143.636 66.9616 143.14C67.2096 142.644 67.5656 142.26 68.0296 141.988C68.4936 141.716 69.0376 141.58 69.6616 141.58C70.2936 141.58 70.8336 141.712 71.2816 141.976C71.7376 142.24 72.0856 142.616 72.3256 143.104C72.5736 143.592 72.6976 144.176 72.6976 144.856C72.6976 145.544 72.5736 146.136 72.3256 146.632C72.0776 147.128 71.7216 147.512 71.2576 147.784C70.8016 148.056 70.2576 148.192 69.6256 148.192C68.6656 148.192 67.9176 147.9 67.3816 147.316C66.8536 146.732 66.5896 145.928 66.5896 144.904ZM67.8976 144.88C67.8976 145.56 68.0336 146.112 68.3056 146.536C68.5776 146.952 69.0216 147.16 69.6376 147.16C70.0456 147.16 70.3776 147.064 70.6336 146.872C70.8896 146.68 71.0776 146.412 71.1976 146.068C71.3256 145.716 71.3896 145.316 71.3896 144.868C71.3896 144.196 71.2496 143.652 70.9696 143.236C70.6976 142.82 70.2536 142.612 69.6376 142.612C69.0296 142.612 68.5856 142.824 68.3056 143.248C68.0336 143.664 67.8976 144.208 67.8976 144.88ZM74.5752 141.352C74.5752 140.888 74.6632 140.508 74.8392 140.212C75.0152 139.916 75.2552 139.696 75.5592 139.552C75.8632 139.408 76.1992 139.336 76.5672 139.336C76.7592 139.336 76.9472 139.348 77.1312 139.372C77.3232 139.396 77.5152 139.436 77.7072 139.492L77.5152 140.44C77.3872 140.4 77.2632 140.376 77.1432 140.368C77.0312 140.352 76.9232 140.344 76.8192 140.344C76.5392 140.344 76.3032 140.416 76.1112 140.56C75.9272 140.704 75.8352 140.96 75.8352 141.328V148H74.5752V141.352ZM73.6032 141.82H77.3712V142.816H73.6032V141.82ZM78.3912 141.772H79.6512V148H78.3912V141.772ZM78.3792 139.42H79.6632V140.704H78.3792V139.42ZM81.7499 145.924V140.092H82.9979V146.14C82.9979 146.428 83.0619 146.66 83.1899 146.836C83.3259 147.012 83.5299 147.1 83.8019 147.1C83.9699 147.1 84.1179 147.088 84.2459 147.064C84.3739 147.032 84.4899 147.004 84.5939 146.98L84.7979 147.928C84.6219 147.984 84.4339 148.032 84.2339 148.072C84.0339 148.112 83.8019 148.132 83.5379 148.132C83.0579 148.132 82.6859 148.04 82.4219 147.856C82.1659 147.672 81.9899 147.416 81.8939 147.088C81.7979 146.752 81.7499 146.364 81.7499 145.924ZM80.7779 141.772H84.5939V142.768H80.7779V141.772Z" fill="black"/>
<g clip-path="url(#clip1_38_158337)">
<rect y="177" width="282" height="12" rx="6" fill="#E5E0DC"/>
<rect x="-0.159912" y="176.766" width="99" height="12" rx="6" fill="#036AA2"/>
</g>
<g filter="url(#filter1_d_38_158337)">
<rect x="86.8401" y="171" width="24" height="24" rx="12" fill="white"/>
<rect x="87.3401" y="171.5" width="23" height="23" rx="11.5" stroke="#EFEBE7"/>
</g>
<defs>
<filter id="filter0_d_38_158337" x="175.84" y="63" width="28" height="28" filterUnits="userSpaceOnUse" color-interpolation-filters="sRGB">
<feFlood flood-opacity="0" result="BackgroundImageFix"/>
<feColorMatrix in="SourceAlpha" type="matrix" values="0 0 0 0 0 0 0 0 0 0 0 0 0 0 0 0 0 0 127 0" result="hardAlpha"/>
<feOffset/>
<feGaussianBlur stdDeviation="1"/>
<feComposite in2="hardAlpha" operator="out"/>
<feColorMatrix type="matrix" values="0 0 0 0 0 0 0 0 0 0 0 0 0 0 0 0 0 0 0.2 0"/>
<feBlend mode="normal" in2="BackgroundImageFix" result="effect1_dropShadow_38_158337"/>
<feBlend mode="normal" in="SourceGraphic" in2="effect1_dropShadow_38_158337" result="shape"/>
</filter>
<filter id="filter1_d_38_158337" x="84.8401" y="169" width="28" height="28" filterUnits="userSpaceOnUse" color-interpolation-filters="sRGB">
<feFlood flood-opacity="0" result="BackgroundImageFix"/>
<feColorMatrix in="SourceAlpha" type="matrix" values="0 0 0 0 0 0 0 0 0 0 0 0 0 0 0 0 0 0 127 0" result="hardAlpha"/>
<feOffset/>
<feGaussianBlur stdDeviation="1"/>
<feComposite in2="hardAlpha" operator="out"/>
<feColorMatrix type="matrix" values="0 0 0 0 0 0 0 0 0 0 0 0 0 0 0 0 0 0 0.2 0"/>
<feBlend mode="normal" in2="BackgroundImageFix" result="effect1_dropShadow_38_158337"/>
<feBlend mode="normal" in="SourceGraphic" in2="effect1_dropShadow_38_158337" result="shape"/>
</filter>
<clipPath id="clip0_38_158337">
<rect y="71" width="282" height="12" rx="6" fill="white"/>
</clipPath>
<clipPath id="clip1_38_158337">
<rect y="177" width="282" height="12" rx="6" fill="white"/>
</clipPath>
</defs>
</svg>
