<svg width="280" height="230" viewBox="0 0 280 230" fill="none" xmlns="http://www.w3.org/2000/svg">
<rect x="0.5" y="92.5" width="278.68" height="44.08" rx="6.86" fill="white"/>
<rect x="0.5" y="92.5" width="278.68" height="44.08" rx="6.86" stroke="#E5E0DC"/>
<path d="M25.8778 111.429H27.2321L25.0093 119.039H23.6551L21.6973 112.106H22.1978L20.2253 119.039H18.8858L16.6778 111.429H18.0762L19.8279 118.347H19.3569L21.3588 111.473H22.6541L24.6119 118.347H24.1409L25.8778 111.429ZM36.8206 111.429H38.1749L35.9522 119.039H34.5979L32.6402 112.106H33.1406L31.1682 119.039H29.8286L27.6206 111.429H29.019L30.7707 118.347H30.2997L32.3016 111.473H33.597L35.5547 118.347H35.0837L36.8206 111.429ZM47.7635 111.429H49.1177L46.895 119.039H45.5407L43.583 112.106H44.0835L42.111 119.039H40.7715L38.5635 111.429H39.9619L41.7135 118.347H41.2425L43.2444 111.473H44.5398L46.4975 118.347H46.0265L47.7635 111.429ZM49.6399 117.317H51.1119V119.039H49.6399V117.317ZM53.1526 111.429H54.4185V113.504L54.1094 113.063C54.4823 112.425 54.9043 111.954 55.3753 111.65C55.8464 111.345 56.3272 111.193 56.8179 111.193C57.4754 111.193 57.9857 111.36 58.3488 111.694C58.7217 112.018 58.9719 112.484 59.0995 113.092L58.6873 113.048C59.0504 112.44 59.4773 111.978 59.968 111.664C60.4586 111.35 60.9885 111.193 61.5577 111.193C62.3035 111.193 62.8776 111.399 63.28 111.812C63.6921 112.214 63.8982 112.866 63.8982 113.769V119.039H62.6176V114.064C62.6176 113.367 62.4998 112.901 62.2643 112.665C62.0386 112.42 61.7098 112.297 61.278 112.297C61.0621 112.297 60.8266 112.337 60.5715 112.415C60.3261 112.494 60.0857 112.631 59.8502 112.827C59.7226 112.935 59.6049 113.063 59.4969 113.21C59.3988 113.347 59.3203 113.504 59.2614 113.681C59.2025 113.848 59.1731 114.034 59.1731 114.24V119.039H57.8924V114.078C57.8924 113.411 57.7747 112.95 57.5392 112.695C57.3135 112.43 56.9847 112.297 56.5529 112.297C56.0524 112.297 55.5814 112.503 55.1398 112.916C55.0319 113.014 54.919 113.136 54.8012 113.284C54.6933 113.421 54.605 113.593 54.5363 113.799C54.4676 113.995 54.4332 114.231 54.4332 114.505V119.039H53.1526V111.429ZM68.5857 119.628L65.0235 111.429H66.5102L69.1598 118.023L68.674 118.038L71.1028 111.429H72.516L69.1892 119.76C69.0028 120.241 68.8114 120.653 68.6152 120.997C68.4189 121.34 68.1834 121.6 67.9086 121.777C67.6338 121.963 67.2805 122.057 66.8488 122.057C66.6132 122.057 66.4022 122.042 66.2158 122.013C66.0293 121.983 65.8233 121.929 65.5976 121.851L65.8478 120.82C65.9852 120.869 66.1226 120.904 66.26 120.923C66.3973 120.953 66.5347 120.967 66.6721 120.967C66.9861 120.967 67.2266 120.874 67.3934 120.688C67.57 120.511 67.7516 120.168 67.938 119.657L68.6299 117.847L68.5857 119.628ZM75.0248 119.039H73.7589V108.529H75.0395V112.886H74.7746C75.0984 112.346 75.4909 111.929 75.9522 111.635C76.4134 111.341 76.958 111.193 77.5861 111.193C78.3123 111.193 78.9158 111.365 79.3966 111.709C79.8775 112.042 80.2357 112.508 80.4712 113.107C80.7067 113.706 80.8245 114.397 80.8245 115.182C80.8245 116.017 80.6871 116.743 80.4123 117.361C80.1375 117.969 79.745 118.44 79.2347 118.774C78.7342 119.108 78.1356 119.275 77.4389 119.275C76.9384 119.275 76.4477 119.152 75.9669 118.907C75.486 118.661 75.0739 118.229 74.7304 117.611H75.0248V119.039ZM75.0248 114.932V115.447C75.0248 116.429 75.2358 117.135 75.6578 117.567C76.0797 117.999 76.6146 118.215 77.2622 118.215C77.6842 118.215 78.0571 118.117 78.381 117.92C78.7146 117.724 78.9796 117.405 79.1758 116.964C79.3721 116.512 79.4702 115.923 79.4702 115.197C79.4702 114.451 79.3672 113.867 79.1611 113.445C78.955 113.014 78.6901 112.709 78.3662 112.533C78.0522 112.346 77.7186 112.253 77.3653 112.253C76.7078 112.253 76.1533 112.479 75.7019 112.93C75.2505 113.372 75.0248 114.039 75.0248 114.932ZM82.645 116.478V111.429H83.9257V116.228C83.9257 116.934 84.0434 117.435 84.279 117.729C84.5145 118.023 84.8874 118.171 85.3977 118.171C85.9767 118.171 86.4919 117.965 86.9433 117.552C87.1101 117.405 87.2475 117.258 87.3554 117.111C87.4634 116.964 87.5468 116.797 87.6057 116.61C87.6646 116.414 87.694 116.188 87.694 115.933V111.429H88.9746V119.039H87.7087V116.757L88.0178 117.405C87.6253 118.053 87.1837 118.529 86.693 118.833C86.2122 119.127 85.6823 119.275 85.1033 119.275C84.2397 119.275 83.6117 119.039 83.2191 118.568C82.8364 118.097 82.645 117.4 82.645 116.478ZM95.8275 117.037C95.8275 116.831 95.7931 116.65 95.7245 116.493C95.6558 116.326 95.5233 116.183 95.327 116.066C95.1406 115.948 94.856 115.86 94.4733 115.801L93.5017 115.653C92.648 115.516 91.9954 115.29 91.544 114.976C91.0926 114.653 90.8668 114.137 90.8668 113.431C90.8668 112.96 90.9993 112.557 91.2643 112.224C91.5293 111.89 91.8874 111.635 92.3389 111.458C92.8001 111.282 93.3153 111.193 93.8844 111.193C94.6205 111.193 95.1994 111.287 95.6214 111.473C96.0434 111.659 96.3574 111.91 96.5635 112.224C96.7696 112.538 96.9168 112.886 97.0051 113.269L95.8422 113.46C95.7048 113.048 95.5086 112.739 95.2534 112.533C94.9983 112.317 94.5567 112.209 93.9286 112.209C93.2221 112.209 92.7363 112.327 92.4713 112.562C92.2162 112.798 92.0886 113.058 92.0886 113.342C92.0886 113.656 92.1818 113.907 92.3683 114.093C92.5547 114.27 92.9424 114.407 93.5312 114.505L94.6352 114.682C95.2338 114.78 95.7146 114.927 96.0777 115.124C96.4408 115.31 96.7058 115.56 96.8726 115.874C97.0493 116.178 97.1376 116.566 97.1376 117.037C97.1376 117.675 96.8824 118.21 96.3721 118.642C95.8618 119.064 95.0964 119.275 94.0758 119.275C93.4674 119.275 92.9129 119.196 92.4125 119.039C91.912 118.882 91.5047 118.622 91.1907 118.259C90.8865 117.896 90.7147 117.415 90.6755 116.816H91.912C92.0003 117.346 92.2211 117.719 92.5744 117.935C92.9375 118.141 93.4281 118.244 94.0464 118.244C94.6941 118.244 95.1504 118.136 95.4153 117.92C95.6901 117.695 95.8275 117.4 95.8275 117.037ZM98.9549 111.429H100.236V119.039H98.9549V111.429ZM98.9255 108.529H100.236V110.016H98.9255V108.529ZM102.379 111.429H103.645V113.504L103.277 113.122C103.561 112.651 103.866 112.278 104.189 112.003C104.513 111.718 104.852 111.512 105.205 111.385C105.558 111.257 105.926 111.193 106.309 111.193C107.173 111.193 107.811 111.434 108.223 111.915C108.645 112.386 108.856 113.073 108.856 113.975V119.039H107.575V114.226C107.575 113.519 107.443 113.023 107.178 112.739C106.922 112.445 106.535 112.297 106.015 112.297C105.74 112.297 105.46 112.346 105.176 112.445C104.891 112.543 104.636 112.7 104.41 112.916C104.253 113.053 104.116 113.2 103.998 113.357C103.89 113.504 103.807 113.676 103.748 113.872C103.689 114.059 103.66 114.28 103.66 114.535V119.039H102.379V111.429ZM110.671 115.285C110.671 114.402 110.823 113.656 111.127 113.048C111.441 112.44 111.868 111.978 112.408 111.664C112.948 111.35 113.566 111.193 114.263 111.193C115.048 111.193 115.685 111.355 116.176 111.679C116.667 111.993 117.03 112.43 117.265 112.989C117.501 113.549 117.619 114.186 117.619 114.903V115.55H111.289V114.594H116.971L116.338 115.079C116.338 114.461 116.279 113.936 116.161 113.504C116.044 113.073 115.833 112.744 115.528 112.518C115.234 112.292 114.807 112.18 114.248 112.18C113.639 112.18 113.168 112.327 112.835 112.621C112.511 112.906 112.285 113.284 112.158 113.755C112.03 114.226 111.966 114.736 111.966 115.285C111.966 116.188 112.158 116.91 112.54 117.449C112.933 117.979 113.507 118.244 114.263 118.244C114.9 118.244 115.367 118.126 115.661 117.891C115.965 117.646 116.166 117.317 116.264 116.905H117.501C117.373 117.631 117.045 118.21 116.515 118.642C115.995 119.064 115.244 119.275 114.263 119.275C113.114 119.275 112.226 118.921 111.598 118.215C110.98 117.508 110.671 116.532 110.671 115.285ZM124.203 117.037C124.203 116.831 124.169 116.65 124.1 116.493C124.031 116.326 123.899 116.183 123.703 116.066C123.516 115.948 123.232 115.86 122.849 115.801L121.877 115.653C121.024 115.516 120.371 115.29 119.92 114.976C119.468 114.653 119.243 114.137 119.243 113.431C119.243 112.96 119.375 112.557 119.64 112.224C119.905 111.89 120.263 111.635 120.715 111.458C121.176 111.282 121.691 111.193 122.26 111.193C122.996 111.193 123.575 111.287 123.997 111.473C124.419 111.659 124.733 111.91 124.939 112.224C125.145 112.538 125.292 112.886 125.381 113.269L124.218 113.46C124.081 113.048 123.884 112.739 123.629 112.533C123.374 112.317 122.932 112.209 122.304 112.209C121.598 112.209 121.112 112.327 120.847 112.562C120.592 112.798 120.464 113.058 120.464 113.342C120.464 113.656 120.558 113.907 120.744 114.093C120.93 114.27 121.318 114.407 121.907 114.505L123.011 114.682C123.609 114.78 124.09 114.927 124.453 115.124C124.817 115.31 125.081 115.56 125.248 115.874C125.425 116.178 125.513 116.566 125.513 117.037C125.513 117.675 125.258 118.21 124.748 118.642C124.238 119.064 123.472 119.275 122.451 119.275C121.843 119.275 121.289 119.196 120.788 119.039C120.288 118.882 119.88 118.622 119.566 118.259C119.262 117.896 119.09 117.415 119.051 116.816H120.288C120.376 117.346 120.597 117.719 120.95 117.935C121.313 118.141 121.804 118.244 122.422 118.244C123.07 118.244 123.526 118.136 123.791 117.92C124.066 117.695 124.203 117.4 124.203 117.037ZM132.041 117.037C132.041 116.831 132.007 116.65 131.938 116.493C131.869 116.326 131.737 116.183 131.541 116.066C131.354 115.948 131.069 115.86 130.687 115.801L129.715 115.653C128.861 115.516 128.209 115.29 127.757 114.976C127.306 114.653 127.08 114.137 127.08 113.431C127.08 112.96 127.213 112.557 127.478 112.224C127.743 111.89 128.101 111.635 128.552 111.458C129.014 111.282 129.529 111.193 130.098 111.193C130.834 111.193 131.413 111.287 131.835 111.473C132.257 111.659 132.571 111.91 132.777 112.224C132.983 112.538 133.13 112.886 133.219 113.269L132.056 113.46C131.918 113.048 131.722 112.739 131.467 112.533C131.212 112.317 130.77 112.209 130.142 112.209C129.436 112.209 128.95 112.327 128.685 112.562C128.43 112.798 128.302 113.058 128.302 113.342C128.302 113.656 128.395 113.907 128.582 114.093C128.768 114.27 129.156 114.407 129.745 114.505L130.849 114.682C131.447 114.78 131.928 114.927 132.291 115.124C132.654 115.31 132.919 115.56 133.086 115.874C133.263 116.178 133.351 116.566 133.351 117.037C133.351 117.675 133.096 118.21 132.586 118.642C132.075 119.064 131.31 119.275 130.289 119.275C129.681 119.275 129.126 119.196 128.626 119.039C128.125 118.882 127.718 118.622 127.404 118.259C127.1 117.896 126.928 117.415 126.889 116.816H128.125C128.214 117.346 128.435 117.719 128.788 117.935C129.151 118.141 129.642 118.244 130.26 118.244C130.908 118.244 131.364 118.136 131.629 117.92C131.904 117.695 132.041 117.4 132.041 117.037ZM134.922 117.317H136.394V119.039H134.922V117.317ZM137.897 115.256C137.897 114.442 138.044 113.73 138.338 113.122C138.633 112.513 139.05 112.042 139.589 111.709C140.139 111.365 140.791 111.193 141.547 111.193C142.45 111.193 143.157 111.419 143.667 111.87C144.177 112.312 144.496 112.925 144.624 113.71L143.343 113.946C143.245 113.455 143.063 113.053 142.798 112.739C142.533 112.415 142.102 112.253 141.503 112.253C140.963 112.253 140.527 112.386 140.193 112.651C139.869 112.916 139.629 113.274 139.472 113.725C139.324 114.167 139.251 114.667 139.251 115.227C139.251 115.776 139.319 116.282 139.457 116.743C139.604 117.194 139.84 117.552 140.163 117.817C140.497 118.082 140.939 118.215 141.488 118.215C142.106 118.215 142.563 118.058 142.857 117.744C143.161 117.43 143.358 117.003 143.446 116.463H144.741C144.614 117.327 144.28 118.014 143.74 118.524C143.201 119.024 142.44 119.275 141.459 119.275C140.301 119.275 139.418 118.911 138.809 118.185C138.201 117.459 137.897 116.483 137.897 115.256ZM146.266 115.256C146.266 114.422 146.418 113.706 146.723 113.107C147.027 112.498 147.459 112.027 148.018 111.694C148.577 111.36 149.23 111.193 149.976 111.193C150.741 111.193 151.394 111.355 151.933 111.679C152.483 112.003 152.905 112.464 153.199 113.063C153.494 113.661 153.641 114.373 153.641 115.197C153.641 116.031 153.489 116.753 153.185 117.361C152.89 117.969 152.463 118.44 151.904 118.774C151.354 119.108 150.697 119.275 149.932 119.275C148.774 119.275 147.871 118.916 147.223 118.2C146.585 117.484 146.266 116.502 146.266 115.256ZM147.62 115.227C147.62 116.1 147.802 116.816 148.165 117.376C148.528 117.935 149.122 118.215 149.946 118.215C150.496 118.215 150.942 118.087 151.286 117.832C151.629 117.577 151.879 117.224 152.036 116.772C152.203 116.311 152.287 115.791 152.287 115.212C152.287 114.338 152.1 113.627 151.727 113.077C151.364 112.528 150.771 112.253 149.946 112.253C149.132 112.253 148.538 112.533 148.165 113.092C147.802 113.642 147.62 114.353 147.62 115.227ZM155.504 111.429H156.77V113.504L156.461 113.063C156.834 112.425 157.256 111.954 157.727 111.65C158.198 111.345 158.679 111.193 159.17 111.193C159.827 111.193 160.337 111.36 160.7 111.694C161.073 112.018 161.324 112.484 161.451 113.092L161.039 113.048C161.402 112.44 161.829 111.978 162.32 111.664C162.81 111.35 163.34 111.193 163.909 111.193C164.655 111.193 165.229 111.399 165.632 111.812C166.044 112.214 166.25 112.866 166.25 113.769V119.039H164.969V114.064C164.969 113.367 164.852 112.901 164.616 112.665C164.39 112.42 164.062 112.297 163.63 112.297C163.414 112.297 163.178 112.337 162.923 112.415C162.678 112.494 162.437 112.631 162.202 112.827C162.074 112.935 161.957 113.063 161.849 113.21C161.751 113.347 161.672 113.504 161.613 113.681C161.554 113.848 161.525 114.034 161.525 114.24V119.039H160.244V114.078C160.244 113.411 160.126 112.95 159.891 112.695C159.665 112.43 159.336 112.297 158.905 112.297C158.404 112.297 157.933 112.503 157.492 112.916C157.384 113.014 157.271 113.136 157.153 113.284C157.045 113.421 156.957 113.593 156.888 113.799C156.819 113.995 156.785 114.231 156.785 114.505V119.039H155.504V111.429Z" fill="#74716B"/>
<path d="M242.167 166.699L250.075 163.512L244.164 148.92L253.791 149.088L229.966 125.229L229.449 158.898L236.256 152.107L242.167 166.699Z" fill="#231F20"/>
<path d="M173.12 100.965L173.12 128.965" stroke="black"/>
</svg>
